<?xml version="1.0" encoding="UTF-8" standalone="no"?>
<!-- Created with Inkscape (http://www.inkscape.org/) -->

<svg
   width="8.5in"
   height="11in"
   viewBox="0 0 215.9 279.4"
   version="1.1"
   id="svg1"
   xml:space="preserve"
   inkscape:export-filename="back2.pdf"
   inkscape:export-xdpi="96"
   inkscape:export-ydpi="96"
   inkscape:version="1.3 (0e150ed, 2023-07-21)"
   sodipodi:docname="back3.svg"
   xmlns:inkscape="http://www.inkscape.org/namespaces/inkscape"
   xmlns:sodipodi="http://sodipodi.sourceforge.net/DTD/sodipodi-0.dtd"
   xmlns="http://www.w3.org/2000/svg"
   xmlns:svg="http://www.w3.org/2000/svg"><sodipodi:namedview
     id="namedview1"
     pagecolor="#ffffff"
     bordercolor="#000000"
     borderopacity="0.25"
     inkscape:showpageshadow="2"
     inkscape:pageopacity="0.0"
     inkscape:pagecheckerboard="0"
     inkscape:deskcolor="#d1d1d1"
     inkscape:document-units="mm"
     inkscape:zoom="0.45850817"
     inkscape:cx="477.63598"
     inkscape:cy="761.16419"
     inkscape:window-width="1312"
     inkscape:window-height="765"
     inkscape:window-x="89"
     inkscape:window-y="42"
     inkscape:window-maximized="0"
     inkscape:current-layer="g2" /><defs
     id="defs1" /><g
     inkscape:label="Layer 1"
     inkscape:groupmode="layer"
     id="layer1"><g
       id="g33"><path
         d="m 15.345836,30.684023 0,105.833347 m 13.229166,-105.833347 0,105.833347 m 13.229167,-105.833347 0,105.833347 m 13.229167,-105.833347 0,105.833347 m 13.229166,-105.833347 0,105.833347 m 13.229167,-105.833347 0,105.833347 m 13.229167,-105.833347 0,105.833347 M 107.95,30.684023 l 0,105.833347 m 13.22917,-105.833347 0,105.833347 m 13.22917,-105.833347 0,105.833347 m 13.22916,-105.833347 0,105.833347 m 13.22917,-105.833347 0,105.833347 m 13.22917,-105.833347 0,105.833347 M 187.325,30.684023 l 0,105.833347 M 15.345836,30.684023 l 185.208324,0 M 15.345836,43.91319 l 185.208324,0 m -185.208324,13.229166 185.208324,0 m -185.208324,13.229167 185.208324,0 M 15.345836,83.60069 l 185.208324,0 m -185.208324,13.229166 185.208324,0 m -185.208324,13.229164 185.208324,0 m -185.208324,13.22917 185.208324,0 m -185.208324,13.22917 185.208324,0"
         style="fill:none;stroke:#000000;stroke-width:0.264583px"
         id="path30" /><path
         style="fill:#ffd204;stroke:#000000;stroke-width:0.26458333;stroke-dasharray:none;stroke-dashoffset:57.6;stroke-opacity:1"
         d="M 200.55416,30.684022 V 136.51736"
         id="path32" /></g><path
       style="fill:#ffd204;stroke:#000000;stroke-width:0.79375;stroke-dasharray:none;stroke-dashoffset:57.6;stroke-opacity:1"
       d="M 107.95,30.684022 V 136.51736"
       id="path34" /><path
       style="fill:#ffd204;stroke:#000000;stroke-width:0.79375;stroke-dasharray:none;stroke-dashoffset:57.6;stroke-opacity:1"
       d="M 107.95,158.35807 V 264.19141"
       id="path34-3" /><text
       xml:space="preserve"
       style="font-weight:100;font-size:4.9389px;line-height:0;font-family:Skia;-inkscape-font-specification:'Skia Thin';text-align:center;letter-spacing:2.64583px;word-spacing:2.71727px;text-anchor:middle;fill:#ffd204;stroke:#000000;stroke-width:0.79375;stroke-dasharray:none;stroke-dashoffset:57.6;stroke-opacity:1"
       x="48.591"
       y="23.607725"
       id="text34"><tspan
         sodipodi:role="line"
         id="tspan34"
         style="font-style:normal;font-variant:normal;font-weight:normal;font-stretch:normal;line-height:0;font-family:'Heiti SC';-inkscape-font-specification:'Heiti SC';letter-spacing:2.64583px;stroke-width:0.79375"
         x="49.913914"
         y="23.607725">Rotate 180</tspan></text><text
       xml:space="preserve"
       style="font-weight:100;font-size:4.9389px;line-height:0;font-family:Skia;-inkscape-font-specification:'Skia Thin';text-align:center;letter-spacing:2.64583px;word-spacing:2.71727px;text-anchor:middle;fill:#ffd204;stroke:#000000;stroke-width:0.79375;stroke-dasharray:none;stroke-dashoffset:57.6;stroke-opacity:1"
       x="55.03334"
       y="158.35806"
       id="text34-0"><tspan
         sodipodi:role="line"
         id="tspan34-6"
         style="font-style:normal;font-variant:normal;font-weight:normal;font-stretch:normal;line-height:0;font-family:'Heiti SC';-inkscape-font-specification:'Heiti SC';letter-spacing:2.64583px;stroke-width:0.79375"
         x="55.03334"
         y="158.35806">Glide Reflect</tspan><tspan
         sodipodi:role="line"
         style="font-style:normal;font-variant:normal;font-weight:normal;font-stretch:normal;line-height:0;font-family:'Heiti SC';-inkscape-font-specification:'Heiti SC';letter-spacing:2.64583px;stroke-width:0.79375"
         x="55.03334"
         y="158.35806"
         id="tspan35" /></text><g
       id="g34"><path
         d="M 15.345838,158.35806 V 264.19141 M 28.575004,158.35806 V 264.19141 M 41.804171,158.35806 V 264.19141 M 55.033338,158.35806 V 264.19141 M 68.262504,158.35806 V 264.19141 M 81.491671,158.35806 V 264.19141 M 94.720838,158.35806 V 264.19141 M 107.95,158.35806 V 264.19141 M 121.17917,158.35806 V 264.19141 M 134.40834,158.35806 V 264.19141 M 147.6375,158.35806 V 264.19141 M 160.86667,158.35806 V 264.19141 M 174.09584,158.35806 V 264.19141 M 187.325,158.35806 V 264.19141 M 15.345838,158.35806 H 200.55416 M 15.345838,171.58723 H 200.55416 M 15.345838,184.81639 H 200.55416 M 15.345838,198.04556 H 200.55416 M 15.345838,211.27473 H 200.55416 M 15.345838,224.50389 H 200.55416 M 15.345838,237.73306 H 200.55416 M 15.345838,250.96223 H 200.55416 M 15.345838,264.1914 H 200.55416"
         style="fill:none;stroke:#000000;stroke-width:0.264583px"
         id="path31" /><path
         style="fill:#ffd204;stroke:#000000;stroke-width:0.264583;stroke-dasharray:none;stroke-dashoffset:57.6;stroke-opacity:1"
         d="M 200.55416,158.35806 V 264.1914"
         id="path33" /></g><text
       xml:space="preserve"
       style="font-size:4.9389px;line-height:0;font-family:'Heiti SC';-inkscape-font-specification:'Heiti SC';text-align:center;letter-spacing:2.64583px;word-spacing:2.71727px;text-anchor:middle;fill:#000000;stroke:#000000;stroke-width:0.79375;stroke-dashoffset:57.6;stroke-opacity:1"
       x="105.19936"
       y="157.8289"
       id="text2-6"><tspan
         sodipodi:role="line"
         id="tspan2-5"
         style="stroke-width:0.79375"
         x="106.52228"
         y="157.8289">F</tspan></text><text
       xml:space="preserve"
       style="font-size:4.9389px;line-height:0;font-family:'Heiti SC';-inkscape-font-specification:'Heiti SC';text-align:center;letter-spacing:2.64583px;word-spacing:2.71727px;text-anchor:middle;fill:#000000;stroke:#000000;stroke-width:0.79375;stroke-dashoffset:57.6;stroke-opacity:1"
       x="111.01527"
       y="-153.62096"
       id="text2-9-5"
       transform="scale(1,-1)"><tspan
         sodipodi:role="line"
         id="tspan2-8-8"
         style="stroke-width:0.79375"
         x="112.33819"
         y="-153.62096">F</tspan></text><text
       xml:space="preserve"
       style="font-size:4.9389px;line-height:0;font-family:'Heiti SC';-inkscape-font-specification:'Heiti SC';text-align:center;letter-spacing:2.64583px;word-spacing:2.71727px;text-anchor:middle;fill:#000000;stroke:#000000;stroke-width:0.79375;stroke-dashoffset:57.6;stroke-opacity:1"
       x="104.8243"
       y="28.313087"
       id="text2-6-8"><tspan
         sodipodi:role="line"
         id="tspan2-5-8"
         style="stroke-width:0.79375"
         x="106.14721"
         y="28.313087">F</tspan></text><text
       xml:space="preserve"
       style="font-size:4.9389px;line-height:0;font-family:'Heiti SC';-inkscape-font-specification:'Heiti SC';text-align:center;letter-spacing:2.64583px;word-spacing:2.71727px;text-anchor:middle;fill:#000000;stroke:#000000;stroke-width:0.79375;stroke-dashoffset:57.6;stroke-opacity:1"
       x="-110.88222"
       y="-24.105141"
       id="text2-9-5-3"
       transform="scale(-1)"><tspan
         sodipodi:role="line"
         id="tspan2-8-8-8"
         style="stroke-width:0.79375"
         x="-109.5593"
         y="-24.105141">F</tspan></text><rect
       style="fill:#000000;stroke:#000000;stroke-width:0.617254;stroke-dashoffset:57.6"
       id="rect1"
       width="6.528791"
       height="6.4038806"
       x="179.06589"
       y="64.665649"
       transform="matrix(0.94252406,0.3341383,-0.94252406,0.3341383,0,0)" /><rect
       style="fill:#000000;stroke:#000000;stroke-width:0.12686;stroke-dashoffset:57.6"
       id="rect1-6"
       width="1.3418221"
       height="1.3161501"
       x="95.763176"
       y="-18.654234"
       transform="matrix(0.94252406,0.3341383,-0.94252406,0.3341383,0,0)" /><path
       d="m 44.030021,117.83644 c -0.03523,-0.0634 -0.324189,-0.63428 -0.634285,-1.26857 -4.475231,-8.88704 -4.996753,-18.246308 -1.515234,-27.196772 0.82457,-2.121328 2.727425,-5.701516 3.023422,-5.687419 0.05638,-6e-6 1.80419,1.141712 3.890278,2.537138 2.07905,1.38838 3.81276,2.459616 3.81276,2.459616 0,0 0.0564,-1.254474 0.0775,-2.699234 l 0.0564,-2.621711 0.54971,-0.126857 c 0.99371,-0.218475 1.69143,-0.662475 2.59352,-1.649139 0.50742,-0.549716 0.8739,-1.028952 1.01486,-1.324951 l 0.21847,-0.47219 2.54419,0.04933 2.54419,0.04933 -0.41582,-0.782284 c -0.23256,-0.429904 -1.36018,-2.530091 -2.52304,-4.665516 -1.16285,-2.135426 -2.17771,-4.024187 -2.26933,-4.186283 -0.19028,-0.373523 -0.20438,-0.359426 1.68438,-1.331993 7.78056,-3.974846 15.83598,-4.827606 24.15216,-2.544192 2.31867,0.641337 6.18076,2.262282 7.46341,3.150283 0.16913,0.112782 0.33829,0.183236 0.36648,0.155043 0.0281,-0.02817 0.0282,-0.324186 -0.007,-0.655427 -0.0987,-0.930281 -0.14096,-2.945896 -0.0916,-4.235603 0.22553,-6.30056 2.3821,-12.41788 6.23714,-17.72473 0.89505,-1.23333 2.14248,-2.72038 3.108001,-3.7 l 0.718847,-0.71885 -0.937327,0.61313 c -5.912941,3.86914 -11.572171,4.51048 -16.068551,1.83239 -0.444,-0.26076 -1.07123,-0.70477 -1.40247,-0.97962 -0.48631,-0.40169 -0.61314,-0.4722 -0.66952,-0.35943 -0.15505,0.36647 -0.95143,1.628 -1.57162,2.51599 -0.86686,1.23333 -2.75561,3.26305 -3.69295,3.97486 -3.33352,2.5019 -6.89256,3.07276 -10.82513,1.71962 -1.43772,-0.49334 -2.62876,-1.07829 -3.81981,-1.86057 -0.94438,-0.63429 -2.0297,-1.4659 -2.45256,-1.88876 l -0.29601,-0.296 -0.26075,1.036 c -0.29599,1.19809 -0.62724,2.05085 -1.22629,3.19961 -0.40876,0.76115 -0.52857,0.90914 -1.67028,2.05085 -1.13466,1.13467 -1.29677,1.26857 -2.0579,1.67734 -1.09238,0.58495 -2.87543,1.18399 -4.22152,1.41657 -1.332,0.23257 -4.595042,0.25371 -6.34285,0.0564 -1.550472,-0.18324 -4.15104,-0.69772 -5.905896,-1.16991 -1.479997,-0.39466 -4.891041,-1.55047 -6.096179,-2.06494 l -0.831623,-0.35238 0.253716,0.43695 c 2.445521,4.22152 3.107999,8.37961 2.12133,13.284729 -0.916188,4.609137 -3.432184,9.676367 -6.998274,14.130457 -0.507428,0.620188 -0.902095,1.141712 -0.902093,1.155806 0,0.01411 0.310092,0.479238 0.690665,1.028953 4.1299,6.075039 5.088373,11.966841 2.699235,16.667596 -1.261524,2.50192 -3.551995,4.84878 -6.166659,6.32174 -0.570856,0.33124 -0.570856,0.33124 -0.45105,0.50743 0.873905,1.29677 1.472953,2.76972 1.726666,4.23562 0.472188,2.72743 0.26076,6.37809 -0.62019,10.55732 -0.486286,2.33276 -0.965523,4.06647 -1.931045,7.01942 -0.486285,1.48705 -0.845711,2.63581 -0.810471,2.54419 0.0493,-0.0916 0.408757,-0.592 0.789329,-1.11353 1.099425,-1.47999 4.052375,-4.39066 5.631037,-5.54647 3.107997,-2.29047 6.075038,-3.83389 9.782082,-5.11656 2.635806,-0.91619 5.137706,-1.54342 7.280179,-1.82533 0.486288,-0.0634 0.697714,-0.1339 0.655428,-0.21847 z"
       id="path1"
       style="fill:none;stroke:#000000;stroke-width:2.41938;stroke-dasharray:none;stroke-opacity:1"
       sodipodi:nodetypes="cccccccccccccccsccccccccccccccccccscccscccccccccscccccccccccccc" /><g
       transform="matrix(0.00853931,0,0,0.00853931,-104.33622,257.42095)"
       fill="#000000"
       stroke="none"
       id="g2"
       style="stroke:#000000;stroke-opacity:1;fill:none;stroke-width:468.42192179;stroke-dasharray:none"><path
         d="m 19883.503,-345.47782 c -57.777,-15.3586 -97.271,-40.22487 -113.361,-71.67363 -5.85,-11.70173 -13.165,-68.01676 -18.283,-136.76488 -58.511,-811.08207 -185.036,-1369.84377 -388.355,-1713.58457 -103.122,-174.0644 -204.05,-283.0376 -427.847,-460.7589 -248.664,-198.1995 -386.161,-344.4723 -460.028,-490.0135 -10.969,-21.9409 -52.659,-120.675 -93.614,-219.4091 -219.409,-539.7461 -413.22,-937.6078 -611.42,-1257.2138 -193.812,-310.8294 -400.787,-540.4774 -572.658,-634.092 -84.839,-46.0758 -131.645,-55.5836 -266.947,-55.5836 h -119.943 v -1919.829 c 0,-1056.0887 39.931,-1832.6299 38.323,-1938.8542 75.329,-13.896 245.445,-33.633 354.418,-53.3797 109.704,-20.4783 287.427,-53.3895 394.936,-73.8678 1275.498,-236.9616 1161.406,-217.9463 1402.025,-237.693 354.711,-28.5232 751.841,-53.3895 1145.314,-70.9423 269.873,-11.7018 1022.446,-11.7018 1206.75,0 376.651,24.8663 604.106,65.8226 738.677,133.108 236.961,119.2124 542.672,405.9069 638.48,598.2555 l 30.718,62.1658 4.387,245.7381 c 2.926,179.9154 6.583,252.3204 13.897,271.3359 21.208,55.5836 68.747,112.63 223.065,267.679 172.601,172.6017 223.798,233.3048 263.291,313.7549 58.509,119.2122 49.733,187.229 -62.166,464.4157 -73.867,184.3036 -102.391,277.9181 -102.391,339.3526 0,75.3305 46.807,152.1237 197.469,322.5314 167.482,190.1544 213.558,269.8731 201.855,351.7856 -7.313,54.8524 -45.345,134.571 -130.913,274.9928 -147.736,243.5441 -187.23,334.9644 -177.723,407.3695 7.315,53.3895 40.958,112.6299 133.11,234.7676 163.094,215.7522 184.304,258.1712 175.526,355.4426 -13.895,155.7805 -138.226,406.6381 -299.127,606.3003 -60.703,75.3304 -179.184,190.1545 -235.499,227.4541 -123.6,83.3753 -307.904,116.2867 -811.812,142.6158 -176.992,9.5076 -975.64,13.1645 -1499.296,6.5822 l -299.859,-3.6567 -17.553,51.1953 c -35.105,100.9282 -21.21,264.7536 38.762,454.9082 59.241,187.229 130.914,351.0543 329.114,746.7219 78.255,157.2432 156.512,317.4118 172.602,356.9053 62.165,149.9296 108.241,320.3373 136.765,510.4917 16.089,102.391 18.283,465.8786 3.656,556.5676 -53.389,332.0391 -141.153,541.20906 -302.053,715.27352 -216.483,234.7677 -596.791,381.04036 -832.292,319.60576 z"
         id="path1-0"
         style="fill:none;stroke:#000000;stroke-width:171.293;stroke-dasharray:none;stroke-opacity:1"
         sodipodi:nodetypes="cccccccccscsccccccccccccccsccccccscccccccccccc" /><path
         d="m 14848.067,-5209.7759 c -89.958,-21.2096 -192.348,-101.6596 -236.962,-186.4977 -48.27,-92.8832 -45.345,47.5387 -45.345,-1955.6658 0,-1595.1037 1.463,-1823.289 10.97,-1864.2455 31.45,-133.108 136.765,-240.6185 270.606,-275.7239 46.806,-12.4332 1252.093,-14.6272 1305.483,-2.194 132.377,30.7172 253.052,157.243 277.918,291.0826 10.239,54.1209 10.239,3648.0408 0,3702.1616 -24.866,133.8396 -145.541,260.3654 -277.918,291.0827 -41.687,9.5077 -1263.796,9.5077 -1304.752,0 z"
         id="path2"
         style="fill:none;stroke:#000000;stroke-width:171.293;stroke-dasharray:none;stroke-opacity:1" /></g></g></svg>
