<?xml version="1.0" encoding="UTF-8" standalone="no"?>
<!-- Created with Inkscape (http://www.inkscape.org/) -->

<svg
   width="8.5in"
   height="11in"
   viewBox="0 0 215.9 279.4"
   version="1.1"
   id="svg1"
   xml:space="preserve"
   inkscape:export-filename="back5.pdf"
   inkscape:export-xdpi="96"
   inkscape:export-ydpi="96"
   inkscape:version="1.3 (0e150ed, 2023-07-21)"
   sodipodi:docname="back4.svg"
   xmlns:inkscape="http://www.inkscape.org/namespaces/inkscape"
   xmlns:sodipodi="http://sodipodi.sourceforge.net/DTD/sodipodi-0.dtd"
   xmlns="http://www.w3.org/2000/svg"
   xmlns:svg="http://www.w3.org/2000/svg"><sodipodi:namedview
     id="namedview1"
     pagecolor="#ffffff"
     bordercolor="#000000"
     borderopacity="0.25"
     inkscape:showpageshadow="2"
     inkscape:pageopacity="0.0"
     inkscape:pagecheckerboard="0"
     inkscape:deskcolor="#d1d1d1"
     inkscape:document-units="mm"
     inkscape:zoom="0.54224192"
     inkscape:cx="414.94394"
     inkscape:cy="556.94698"
     inkscape:window-width="1312"
     inkscape:window-height="765"
     inkscape:window-x="89"
     inkscape:window-y="42"
     inkscape:window-maximized="0"
     inkscape:current-layer="layer1" /><defs
     id="defs1" /><g
     inkscape:label="Layer 1"
     inkscape:groupmode="layer"
     id="layer1"><g
       id="g33"><path
         d="m 15.345836,30.684023 0,105.833347 m 13.229166,-105.833347 0,105.833347 m 13.229167,-105.833347 0,105.833347 m 13.229167,-105.833347 0,105.833347 m 13.229166,-105.833347 0,105.833347 m 13.229167,-105.833347 0,105.833347 m 13.229167,-105.833347 0,105.833347 M 107.95,30.684023 l 0,105.833347 m 13.22917,-105.833347 0,105.833347 m 13.22917,-105.833347 0,105.833347 m 13.22916,-105.833347 0,105.833347 m 13.22917,-105.833347 0,105.833347 m 13.22917,-105.833347 0,105.833347 M 187.325,30.684023 l 0,105.833347 M 15.345836,30.684023 l 185.208324,0 M 15.345836,43.91319 l 185.208324,0 m -185.208324,13.229166 185.208324,0 m -185.208324,13.229167 185.208324,0 M 15.345836,83.60069 l 185.208324,0 m -185.208324,13.229166 185.208324,0 m -185.208324,13.229164 185.208324,0 m -185.208324,13.22917 185.208324,0 m -185.208324,13.22917 185.208324,0"
         style="fill:none;stroke:#000000;stroke-width:0.264583px"
         id="path30" /><path
         style="fill:#ffd204;stroke:#000000;stroke-width:0.26458333;stroke-dasharray:none;stroke-dashoffset:57.6;stroke-opacity:1"
         d="M 200.55416,30.684022 V 136.51736"
         id="path32" /></g><path
       style="fill:#ffd204;stroke:#000000;stroke-width:0.79375;stroke-dasharray:none;stroke-dashoffset:57.6;stroke-opacity:1"
       d="M 107.95,30.684022 V 136.51736"
       id="path34" /><path
       style="fill:#ffd204;stroke:#000000;stroke-width:0.79375;stroke-dasharray:none;stroke-dashoffset:57.6;stroke-opacity:1"
       d="M 107.95,158.35807 V 264.19141"
       id="path34-3" /><g
       id="g34"><path
         d="M 15.345838,158.35806 V 264.19141 M 28.575004,158.35806 V 264.19141 M 41.804171,158.35806 V 264.19141 M 55.033338,158.35806 V 264.19141 M 68.262504,158.35806 V 264.19141 M 81.491671,158.35806 V 264.19141 M 94.720838,158.35806 V 264.19141 M 107.95,158.35806 V 264.19141 M 121.17917,158.35806 V 264.19141 M 134.40834,158.35806 V 264.19141 M 147.6375,158.35806 V 264.19141 M 160.86667,158.35806 V 264.19141 M 174.09584,158.35806 V 264.19141 M 187.325,158.35806 V 264.19141 M 15.345838,158.35806 H 200.55416 M 15.345838,171.58723 H 200.55416 M 15.345838,184.81639 H 200.55416 M 15.345838,198.04556 H 200.55416 M 15.345838,211.27473 H 200.55416 M 15.345838,224.50389 H 200.55416 M 15.345838,237.73306 H 200.55416 M 15.345838,250.96223 H 200.55416 M 15.345838,264.1914 H 200.55416"
         style="fill:none;stroke:#000000;stroke-width:0.264583px"
         id="path31" /><path
         style="fill:#ffd204;stroke:#000000;stroke-width:0.264583;stroke-dasharray:none;stroke-dashoffset:57.6;stroke-opacity:1"
         d="M 200.55416,158.35806 V 264.1914"
         id="path33" /></g><text
       xml:space="preserve"
       style="font-size:4.9389px;line-height:0;font-family:'Heiti SC';-inkscape-font-specification:'Heiti SC';text-align:center;letter-spacing:2.64583px;word-spacing:2.71727px;text-anchor:middle;fill:#000000;stroke:#000000;stroke-width:0.79375;stroke-dashoffset:57.6;stroke-opacity:1"
       x="105.19936"
       y="157.8289"
       id="text2-6"><tspan
         sodipodi:role="line"
         id="tspan2-5"
         style="stroke-width:0.79375"
         x="106.52228"
         y="157.8289">F</tspan></text><text
       xml:space="preserve"
       style="font-size:4.9389px;line-height:0;font-family:'Heiti SC';-inkscape-font-specification:'Heiti SC';text-align:center;letter-spacing:2.64583px;word-spacing:2.71727px;text-anchor:middle;fill:#000000;stroke:#000000;stroke-width:0.79375;stroke-dashoffset:57.6;stroke-opacity:1"
       x="111.01527"
       y="-153.62096"
       id="text2-9-5"
       transform="scale(1,-1)"><tspan
         sodipodi:role="line"
         id="tspan2-8-8"
         style="stroke-width:0.79375"
         x="112.33819"
         y="-153.62096">F</tspan></text><text
       xml:space="preserve"
       style="font-size:4.9389px;line-height:0;font-family:'Heiti SC';-inkscape-font-specification:'Heiti SC';text-align:center;letter-spacing:2.64583px;word-spacing:2.71727px;text-anchor:middle;fill:#000000;stroke:#000000;stroke-width:0.79375;stroke-dashoffset:57.6;stroke-opacity:1"
       x="104.8243"
       y="28.313087"
       id="text2-6-8"><tspan
         sodipodi:role="line"
         id="tspan2-5-8"
         style="stroke-width:0.79375"
         x="106.14721"
         y="28.313087">F</tspan></text><text
       xml:space="preserve"
       style="font-size:4.9389px;line-height:0;font-family:'Heiti SC';-inkscape-font-specification:'Heiti SC';text-align:center;letter-spacing:2.64583px;word-spacing:2.71727px;text-anchor:middle;fill:#000000;stroke:#000000;stroke-width:0.79375;stroke-dashoffset:57.6;stroke-opacity:1"
       x="-110.88222"
       y="-24.105141"
       id="text2-9-5-3"
       transform="scale(-1)"><tspan
         sodipodi:role="line"
         id="tspan2-8-8-8"
         style="stroke-width:0.79375"
         x="-109.5593"
         y="-24.105141">F</tspan></text><rect
       style="fill:#000000;stroke:#000000;stroke-width:0.617254;stroke-dashoffset:57.6"
       id="rect1"
       width="6.528791"
       height="6.4038806"
       x="179.06589"
       y="64.665649"
       transform="matrix(0.94252406,0.3341383,-0.94252406,0.3341383,0,0)" /><rect
       style="fill:#000000;stroke:#000000;stroke-width:0.12686;stroke-dashoffset:57.6"
       id="rect1-6"
       width="1.3418221"
       height="1.3161501"
       x="95.763176"
       y="-18.654234"
       transform="matrix(0.94252406,0.3341383,-0.94252406,0.3341383,0,0)" /><g
       transform="matrix(0.00853931,0,0,0.00853931,-104.33622,257.42095)"
       fill="#000000"
       stroke="none"
       id="g2"
       style="stroke:#000000;stroke-opacity:1;fill:none;stroke-width:468.42192179;stroke-dasharray:none"><path
         d="m 19883.503,-345.47782 c -57.777,-15.3586 -97.271,-40.22487 -113.361,-71.67363 -5.85,-11.70173 -13.165,-68.01676 -18.283,-136.76488 -58.511,-811.08207 -185.036,-1369.84377 -388.355,-1713.58457 -103.122,-174.0644 -204.05,-283.0376 -427.847,-460.7589 -248.664,-198.1995 -386.161,-344.4723 -460.028,-490.0135 -10.969,-21.9409 -52.659,-120.675 -93.614,-219.4091 -219.409,-539.7461 -413.22,-937.6078 -611.42,-1257.2138 -193.812,-310.8294 -400.787,-540.4774 -572.658,-634.092 -84.839,-46.0758 -131.645,-55.5836 -266.947,-55.5836 h -119.943 v -1919.829 c 0,-1056.0887 39.931,-1832.6299 38.323,-1938.8542 75.329,-13.896 245.445,-33.633 354.418,-53.3797 109.704,-20.4783 287.427,-53.3895 394.936,-73.8678 1275.498,-236.9616 1161.406,-217.9463 1402.025,-237.693 354.711,-28.5232 751.841,-53.3895 1145.314,-70.9423 269.873,-11.7018 1022.446,-11.7018 1206.75,0 376.651,24.8663 604.106,65.8226 738.677,133.108 236.961,119.2124 542.672,405.9069 638.48,598.2555 l 30.718,62.1658 4.387,245.7381 c 2.926,179.9154 6.583,252.3204 13.897,271.3359 21.208,55.5836 68.747,112.63 223.065,267.679 172.601,172.6017 223.798,233.3048 263.291,313.7549 58.509,119.2122 49.733,187.229 -62.166,464.4157 -73.867,184.3036 -102.391,277.9181 -102.391,339.3526 0,75.3305 46.807,152.1237 197.469,322.5314 167.482,190.1544 213.558,269.8731 201.855,351.7856 -7.313,54.8524 -45.345,134.571 -130.913,274.9928 -147.736,243.5441 -187.23,334.9644 -177.723,407.3695 7.315,53.3895 40.958,112.6299 133.11,234.7676 163.094,215.7522 184.304,258.1712 175.526,355.4426 -13.895,155.7805 -138.226,406.6381 -299.127,606.3003 -60.703,75.3304 -179.184,190.1545 -235.499,227.4541 -123.6,83.3753 -307.904,116.2867 -811.812,142.6158 -176.992,9.5076 -975.64,13.1645 -1499.296,6.5822 l -299.859,-3.6567 -17.553,51.1953 c -35.105,100.9282 -21.21,264.7536 38.762,454.9082 59.241,187.229 130.914,351.0543 329.114,746.7219 78.255,157.2432 156.512,317.4118 172.602,356.9053 62.165,149.9296 108.241,320.3373 136.765,510.4917 16.089,102.391 18.283,465.8786 3.656,556.5676 -53.389,332.0391 -141.153,541.20906 -302.053,715.27352 -216.483,234.7677 -596.791,381.04036 -832.292,319.60576 z"
         id="path1-0"
         style="fill:none;stroke:#000000;stroke-width:171.293;stroke-dasharray:none;stroke-opacity:1"
         sodipodi:nodetypes="cccccccccscsccccccccccccccsccccccscccccccccccc" /><path
         d="m 14848.067,-5209.7759 c -89.958,-21.2096 -192.348,-101.6596 -236.962,-186.4977 -48.27,-92.8832 -45.345,47.5387 -45.345,-1955.6658 0,-1595.1037 1.463,-1823.289 10.97,-1864.2455 31.45,-133.108 136.765,-240.6185 270.606,-275.7239 46.806,-12.4332 1252.093,-14.6272 1305.483,-2.194 132.377,30.7172 253.052,157.243 277.918,291.0826 10.239,54.1209 10.239,3648.0408 0,3702.1616 -24.866,133.8396 -145.541,260.3654 -277.918,291.0827 -41.687,9.5077 -1263.796,9.5077 -1304.752,0 z"
         id="path2"
         style="fill:none;stroke:#000000;stroke-width:171.293;stroke-dasharray:none;stroke-opacity:1" /></g><path
       d="m 58.803904,33.745116 c 0.04572,0.0895 1.932196,3.413924 4.185675,7.403093 l 4.099568,7.24448 -0.196156,0.08163 c -0.109813,0.05123 -0.585293,0.229505 -1.062601,0.401 -5.310828,1.931751 -10.806385,4.421714 -15.099216,6.843767 -9.160918,5.165394 -15.044984,10.978911 -17.570012,17.367652 -0.9129,2.315817 -1.38369,4.89834 -1.34727,7.366759 0.0848,5.849329 2.901962,11.969411 8.165502,17.753756 5.867076,6.436587 14.463588,12.156347 23.886557,15.888677 5.617409,2.22299 11.356316,3.57041 16.284953,3.81953 2.179641,0.10637 4.413279,-0.0197 6.120781,-0.34646 l 0.621148,-0.12285 -0.886965,-0.19111 c -6.072605,-1.34521 -14.236997,-6.07611 -20.650119,-11.97393 -4.28237,-3.93972 -7.591482,-8.125677 -9.576397,-12.143196 -0.840828,-1.70056 -1.127987,-2.473899 -1.642155,-4.392798 -0.47783,-1.783286 -0.537896,-2.116027 -0.648718,-3.641554 -0.113235,-1.670227 0.17439,-3.905709 0.696617,-5.45551 1.085494,-3.190544 3.284611,-6.076288 6.498946,-8.536391 2.822647,-2.15893 5.73557,-3.709789 10.630833,-5.646467 0.211525,-0.07848 0.282972,-0.08307 0.302953,-0.0085 0.01817,0.06781 0.154181,13.214394 0.169125,16.633326 l 0.0025,0.253677 0.126749,-0.259251 c 0.07083,-0.142523 0.335584,-0.70038 0.595387,-1.24964 0.718502,-1.522455 1.606872,-3.170365 2.891635,-5.345996 6.052358,-10.284446 14.252999,-19.087853 23.417832,-25.133649 0.921275,-0.602956 3.066664,-1.926351 3.542494,-2.184663 0.1907,-0.10197 0.30996,-0.199333 0.26879,-0.217371 -0.0344,-0.01985 -0.6851,-0.03445 -1.44974,-0.04032 -5.725597,-0.05012 -12.147755,-1.01824 -18.182367,-2.737 -5.73513,-1.631842 -11.189324,-3.869493 -16.781014,-6.891518 -2.294044,-1.238496 -4.481064,-2.592877 -7.166988,-4.453107 -0.267014,-0.182812 -0.321747,-0.197216 -0.248359,-0.08607 z"
       id="path1"
       style="fill:none;stroke:#000000;stroke-width:1;stroke-dasharray:none;stroke-opacity:1" /><path
       style="fill:none;stroke:#000000;stroke-width:0.7;stroke-dasharray:4.2,4.2;stroke-dashoffset:0;stroke-opacity:1"
       d="M 15.345838,211.27473 H 200.55416"
       id="path3" /><text
       xml:space="preserve"
       style="font-weight:100;font-size:4.9389px;line-height:0;font-family:Skia;-inkscape-font-specification:'Skia Thin';text-align:center;letter-spacing:2.64583px;word-spacing:2.71727px;text-anchor:middle;fill:#ffd204;stroke:#000000;stroke-width:0.79375;stroke-dasharray:none;stroke-dashoffset:57.6;stroke-opacity:1"
       x="50.095753"
       y="27.696796"
       id="text34-0-8"><tspan
         sodipodi:role="line"
         id="tspan34-6-9"
         style="font-style:normal;font-variant:normal;font-weight:normal;font-stretch:normal;line-height:0;font-family:'Noto Sans Duployan';-inkscape-font-specification:'Noto Sans Duployan';letter-spacing:0.529167px;word-spacing:0.264583px;fill:#000000;fill-opacity:1;stroke:none;stroke-width:0.79375"
         x="50.095753"
         y="27.696796">Rotation (180 Degrees)</tspan><tspan
         sodipodi:role="line"
         style="font-style:normal;font-variant:normal;font-weight:normal;font-stretch:normal;line-height:0;font-family:'Heiti SC';-inkscape-font-specification:'Heiti SC';letter-spacing:2.64583px;stroke-width:0.79375"
         x="50.095753"
         y="27.736771"
         id="tspan35-3" /></text><text
       xml:space="preserve"
       style="font-weight:100;font-size:4.9389px;line-height:0;font-family:Skia;-inkscape-font-specification:'Skia Thin';text-align:center;letter-spacing:2.64583px;word-spacing:2.71727px;text-anchor:middle;fill:#ffd204;stroke:#000000;stroke-width:0.79375;stroke-dasharray:none;stroke-dashoffset:57.6;stroke-opacity:1"
       x="39.556049"
       y="156.54306"
       id="text34-0-8-0"><tspan
         sodipodi:role="line"
         id="tspan34-6-9-0"
         style="font-style:normal;font-variant:normal;font-weight:normal;font-stretch:normal;line-height:0;font-family:'Noto Sans Duployan';-inkscape-font-specification:'Noto Sans Duployan';letter-spacing:0.529167px;word-spacing:0.264583px;fill:#000000;fill-opacity:1;stroke:none;stroke-width:0.79375"
         x="39.556049"
         y="156.54306">Glide Reflection</tspan><tspan
         sodipodi:role="line"
         style="font-style:normal;font-variant:normal;font-weight:normal;font-stretch:normal;line-height:0;font-family:'Heiti SC';-inkscape-font-specification:'Heiti SC';letter-spacing:2.64583px;stroke-width:0.79375"
         x="39.556049"
         y="156.58304"
         id="tspan35-3-3" /></text></g></svg>
