<?xml version="1.0" encoding="UTF-8" standalone="no"?>
<!-- Created with Inkscape (http://www.inkscape.org/) -->

<svg
   width="210mm"
   height="297mm"
   viewBox="0 0 210 297"
   version="1.1"
   id="svg1"
   xml:space="preserve"
   inkscape:version="1.3 (0e150ed, 2023-07-21)"
   sodipodi:docname="foot.svg"
   xmlns:inkscape="http://www.inkscape.org/namespaces/inkscape"
   xmlns:sodipodi="http://sodipodi.sourceforge.net/DTD/sodipodi-0.dtd"
   xmlns="http://www.w3.org/2000/svg"
   xmlns:svg="http://www.w3.org/2000/svg"><sodipodi:namedview
     id="namedview1"
     pagecolor="#ffffff"
     bordercolor="#000000"
     borderopacity="0.25"
     inkscape:showpageshadow="2"
     inkscape:pageopacity="0.0"
     inkscape:pagecheckerboard="0"
     inkscape:deskcolor="#d1d1d1"
     inkscape:document-units="mm"
     inkscape:zoom="6.0653725"
     inkscape:cx="55.561303"
     inkscape:cy="1083.4454"
     inkscape:window-width="1312"
     inkscape:window-height="744"
     inkscape:window-x="0"
     inkscape:window-y="25"
     inkscape:window-maximized="0"
     inkscape:current-layer="layer1" /><defs
     id="defs1" /><g
     inkscape:label="Layer 1"
     inkscape:groupmode="layer"
     id="layer1"><path
       style="fill:none;stroke:#420077;stroke-width:0.5;stroke-dasharray:none"
       d="m 1.0780245,289.24744 0.5390123,1.2128 0.6063888,1.01063 1.280154,0.2695 1.0780247,-0.20211 1.4822837,-1.75178 1.0780244,-1.54966 0.5390123,-0.6064 0.6063888,0.13475 1.0780246,0.8759 0.2021295,2.22343 0.6063884,0.87587 0.606389,0.47165 h 2.627685 l 1.54966,-1.14541 0.404259,-1.21277 v -0.67376 l -1.010648,-2.15606 -1.212777,-1.28014 -1.617037,-1.07804 -1.078024,0.0674 -2.1560495,0.94327 -1.9539194,1.41491 -1.6844134,0.6064 -1.4822836,-0.0674 H 2.0886725 l -0.8085184,0.80851 z"
       id="path1" /><path
       style="fill:none;stroke:#420077;stroke-width:0.499999;stroke-dasharray:none"
       d="m 14.656973,292.79048 0.654329,0.69794 0.610707,1.963 0.567085,0.26173 0.828817,0.17449 0.959683,-0.52348 0.828817,-1.0033 0.261731,-1.13416 -0.130865,-1.22142 -0.697952,-0.43622 -1.526767,0.21812 -1.134171,-0.39262 -0.785195,0.13089 -0.392597,0.65432 z"
       id="path2" /><path
       style="fill:none;stroke:#420077;stroke-width:0.499999;stroke-dasharray:none"
       d="m 15.834765,290.52213 1.046927,0.52348 0.872438,0.30535 0.697952,-0.39261 0.08724,-1.35226 -0.567085,-0.56711 -0.872439,0.0436 -1.003304,0.56708 -0.305354,0.39262 z"
       id="path3" /><path
       style="fill:none;stroke:#420077;stroke-width:0.499999;stroke-dasharray:none"
       d="m 15.529411,288.07931 0.741573,0.0872 0.305354,0.21812 1.35228,0.0436 0.348976,-0.47984 -0.04362,-0.82884 -0.523463,-0.69794 -0.523464,-0.2181 -0.392597,-0.34898 0.08724,-0.82881 -0.697951,-0.43622 -0.65433,-0.0873 -0.741572,0.74157 -0.348976,0.78521 1.221414,0.0872 0.523464,0.17449 0.130865,0.39259 -0.697951,0.56711 z"
       id="path4" /><path
       style="fill:none;stroke:#420077;stroke-width:0.499999;stroke-dasharray:none"
       d="m 13.391936,284.67679 1.090549,-0.26172 0.697951,-0.26173 0.08724,-0.7852 -0.697951,-0.52345 -0.741573,0.0872 -0.697951,0.87244 -0.04362,0.61071 z"
       id="path5" /></g></svg>
