<?xml version="1.0" encoding="UTF-8" standalone="no"?>
<svg
   width="1900.0000000000002"
   height="1000"
   version="1.1"
   id="svg1"
   sodipodi:docname="US_Flag.svg"
   inkscape:version="1.3 (0e150ed, 2023-07-21)"
   xmlns:inkscape="http://www.inkscape.org/namespaces/inkscape"
   xmlns:sodipodi="http://sodipodi.sourceforge.net/DTD/sodipodi-0.dtd"
   xmlns="http://www.w3.org/2000/svg"
   xmlns:svg="http://www.w3.org/2000/svg">
  <defs
     id="defs1" />
  <sodipodi:namedview
     id="namedview1"
     pagecolor="#ffffff"
     bordercolor="#000000"
     borderopacity="0.25"
     inkscape:showpageshadow="2"
     inkscape:pageopacity="0.0"
     inkscape:pagecheckerboard="0"
     inkscape:deskcolor="#d1d1d1"
     inkscape:zoom="0.24782107"
     inkscape:cx="742.47118"
     inkscape:cy="502.3786"
     inkscape:window-width="1312"
     inkscape:window-height="716"
     inkscape:window-x="0"
     inkscape:window-y="25"
     inkscape:window-maximized="0"
     inkscape:current-layer="g1" />
  <g
     id="g1">
    <title
       id="title1">Layer 1</title>
    <rect
       id="svg_1"
       height="539"
       width="760"
       y="0"
       x="0"
       fill="#0000bf" />
    <rect
       id="svg_2"
       height="77"
       width="1900"
       y="923"
       x="0"
       fill="#ff0000" />
    <rect
       transform="translate(0 599.708)"
       id="svg_4"
       height="77"
       width="1900"
       y="undefined"
       x="0"
       fill="#ffffff" />
    <rect
       stroke="null"
       id="svg_5"
       height="77"
       width="1140"
       y="0"
       x="760"
       fill="#ff0000" />
    <rect
       stroke="null"
       id="svg_6"
       height="77"
       width="1140"
       y="154"
       x="760"
       fill="#ff0000" />
    <rect
       stroke="null"
       id="svg_7"
       height="77"
       width="1140"
       y="308"
       x="760"
       fill="#ff0000" />
    <rect
       stroke="null"
       id="svg_8"
       height="77"
       width="1140"
       y="462"
       x="760"
       fill="#ff0000" />
    <rect
       id="svg_9"
       height="77"
       width="1900"
       y="616"
       x="0"
       fill="#ff0000" />
    <rect
       id="svg_10"
       height="77"
       width="1900"
       y="770"
       x="0"
       fill="#ff0000" />
    <path
       sodipodi:type="star"
       style="fill:#ffffff;fill-opacity:1;stroke:none;stroke-width:9.6;stroke-dashoffset:57.6;stroke-opacity:1"
       id="path4"
       inkscape:flatsided="false"
       sodipodi:sides="5"
       sodipodi:cx="-383.66849"
       sodipodi:cy="188.4865"
       sodipodi:r1="30.799999"
       sodipodi:r2="15.4"
       sodipodi:arg1="-1.5707963"
       sodipodi:arg2="-0.9424778"
       inkscape:rounded="0"
       inkscape:randomized="0"
       d="m -383.66849,157.6865 9.0519,18.34113 20.24064,2.94114 -14.64627,14.27659 3.45752,20.15886 -18.10379,-9.51772 -18.10378,9.51772 3.45751,-20.15886 -14.64627,-14.27659 20.24065,-2.94114 z"
       inkscape:transform-center-y="-2.9411382"
       transform="translate(447.00182,-132.12536)" />
    <path
       sodipodi:type="star"
       style="fill:#ffffff;fill-opacity:1;stroke:none;stroke-width:9.6;stroke-dashoffset:57.6;stroke-opacity:1"
       id="path4-0"
       inkscape:flatsided="false"
       sodipodi:sides="5"
       sodipodi:cx="-383.66849"
       sodipodi:cy="188.4865"
       sodipodi:r1="30.799999"
       sodipodi:r2="15.4"
       sodipodi:arg1="-1.5707963"
       sodipodi:arg2="-0.9424778"
       inkscape:rounded="0"
       inkscape:randomized="0"
       d="m -383.66849,157.6865 9.0519,18.34113 20.24064,2.94114 -14.64627,14.27659 3.45752,20.15886 -18.10379,-9.51772 -18.10378,9.51772 3.45751,-20.15886 -14.64627,-14.27659 20.24065,-2.94114 z"
       inkscape:transform-center-y="-2.9411382"
       transform="translate(573.66849,-132.12536)" />
    <path
       sodipodi:type="star"
       style="fill:#ffffff;fill-opacity:1;stroke:none;stroke-width:9.6;stroke-dashoffset:57.6;stroke-opacity:1"
       id="path4-5"
       inkscape:flatsided="false"
       sodipodi:sides="5"
       sodipodi:cx="-383.66849"
       sodipodi:cy="188.4865"
       sodipodi:r1="30.799999"
       sodipodi:r2="15.4"
       sodipodi:arg1="-1.5707963"
       sodipodi:arg2="-0.9424778"
       inkscape:rounded="0"
       inkscape:randomized="0"
       d="m -383.66849,157.6865 9.0519,18.34113 20.24064,2.94114 -14.64627,14.27659 3.45752,20.15886 -18.10379,-9.51772 -18.10378,9.51772 3.45751,-20.15886 -14.64627,-14.27659 20.24065,-2.94114 z"
       inkscape:transform-center-y="-2.9411382"
       transform="translate(700.33516,-132.12536)" />
    <path
       sodipodi:type="star"
       style="fill:#ffffff;fill-opacity:1;stroke:none;stroke-width:9.6;stroke-dashoffset:57.6;stroke-opacity:1"
       id="path4-2"
       inkscape:flatsided="false"
       sodipodi:sides="5"
       sodipodi:cx="-383.66849"
       sodipodi:cy="188.4865"
       sodipodi:r1="30.799999"
       sodipodi:r2="15.4"
       sodipodi:arg1="-1.5707963"
       sodipodi:arg2="-0.9424778"
       inkscape:rounded="0"
       inkscape:randomized="0"
       d="m -383.66849,157.6865 9.0519,18.34113 20.24064,2.94114 -14.64627,14.27659 3.45752,20.15886 -18.10379,-9.51772 -18.10378,9.51772 3.45751,-20.15886 -14.64627,-14.27659 20.24065,-2.94114 z"
       inkscape:transform-center-y="-2.9411382"
       transform="translate(827.00182,-132.12536)" />
    <path
       sodipodi:type="star"
       style="fill:#ffffff;fill-opacity:1;stroke:none;stroke-width:9.6;stroke-dashoffset:57.6;stroke-opacity:1"
       id="path4-25"
       inkscape:flatsided="false"
       sodipodi:sides="5"
       sodipodi:cx="-383.66849"
       sodipodi:cy="188.4865"
       sodipodi:r1="30.799999"
       sodipodi:r2="15.4"
       sodipodi:arg1="-1.5707963"
       sodipodi:arg2="-0.9424778"
       inkscape:rounded="0"
       inkscape:randomized="0"
       d="m -383.66849,157.6865 9.0519,18.34113 20.24064,2.94114 -14.64627,14.27659 3.45752,20.15886 -18.10379,-9.51772 -18.10378,9.51772 3.45751,-20.15886 -14.64627,-14.27659 20.24065,-2.94114 z"
       inkscape:transform-center-y="-2.9411382"
       transform="translate(953.66849,-132.12536)" />
    <path
       sodipodi:type="star"
       style="fill:#ffffff;fill-opacity:1;stroke:none;stroke-width:9.6;stroke-dashoffset:57.6;stroke-opacity:1"
       id="path4-3"
       inkscape:flatsided="false"
       sodipodi:sides="5"
       sodipodi:cx="-383.66849"
       sodipodi:cy="188.4865"
       sodipodi:r1="30.799999"
       sodipodi:r2="15.4"
       sodipodi:arg1="-1.5707963"
       sodipodi:arg2="-0.9424778"
       inkscape:rounded="0"
       inkscape:randomized="0"
       d="m -383.66849,157.6865 9.0519,18.34113 20.24064,2.94114 -14.64627,14.27659 3.45752,20.15886 -18.10379,-9.51772 -18.10378,9.51772 3.45751,-20.15886 -14.64627,-14.27659 20.24065,-2.94114 z"
       inkscape:transform-center-y="-2.9411382"
       transform="translate(1080.3352,-132.12536)" />
    <path
       sodipodi:type="star"
       style="fill:#ffffff;fill-opacity:1;stroke:none;stroke-width:9.6;stroke-dashoffset:57.6;stroke-opacity:1"
       id="path4-7"
       inkscape:flatsided="false"
       sodipodi:sides="5"
       sodipodi:cx="-383.66849"
       sodipodi:cy="188.4865"
       sodipodi:r1="30.799999"
       sodipodi:r2="15.4"
       sodipodi:arg1="-1.5707963"
       sodipodi:arg2="-0.9424778"
       inkscape:rounded="0"
       inkscape:randomized="0"
       d="m -383.66849,157.6865 9.0519,18.34113 20.24064,2.94114 -14.64627,14.27659 3.45752,20.15886 -18.10379,-9.51772 -18.10378,9.51772 3.45751,-20.15886 -14.64627,-14.27659 20.24065,-2.94114 z"
       inkscape:transform-center-y="-2.9411382"
       transform="translate(447.00182,295.23464)" />
    <path
       sodipodi:type="star"
       style="fill:#ffffff;fill-opacity:1;stroke:none;stroke-width:9.6;stroke-dashoffset:57.6;stroke-opacity:1"
       id="path4-0-32"
       inkscape:flatsided="false"
       sodipodi:sides="5"
       sodipodi:cx="-383.66849"
       sodipodi:cy="188.4865"
       sodipodi:r1="30.799999"
       sodipodi:r2="15.4"
       sodipodi:arg1="-1.5707963"
       sodipodi:arg2="-0.9424778"
       inkscape:rounded="0"
       inkscape:randomized="0"
       d="m -383.66849,157.6865 9.0519,18.34113 20.24064,2.94114 -14.64627,14.27659 3.45752,20.15886 -18.10379,-9.51772 -18.10378,9.51772 3.45751,-20.15886 -14.64627,-14.27659 20.24065,-2.94114 z"
       inkscape:transform-center-y="-2.9411382"
       transform="translate(573.66849,295.23464)" />
    <path
       sodipodi:type="star"
       style="fill:#ffffff;fill-opacity:1;stroke:none;stroke-width:9.6;stroke-dashoffset:57.6;stroke-opacity:1"
       id="path4-5-56"
       inkscape:flatsided="false"
       sodipodi:sides="5"
       sodipodi:cx="-383.66849"
       sodipodi:cy="188.4865"
       sodipodi:r1="30.799999"
       sodipodi:r2="15.4"
       sodipodi:arg1="-1.5707963"
       sodipodi:arg2="-0.9424778"
       inkscape:rounded="0"
       inkscape:randomized="0"
       d="m -383.66849,157.6865 9.0519,18.34113 20.24064,2.94114 -14.64627,14.27659 3.45752,20.15886 -18.10379,-9.51772 -18.10378,9.51772 3.45751,-20.15886 -14.64627,-14.27659 20.24065,-2.94114 z"
       inkscape:transform-center-y="-2.9411382"
       transform="translate(700.33516,295.23464)" />
    <path
       sodipodi:type="star"
       style="fill:#ffffff;fill-opacity:1;stroke:none;stroke-width:9.6;stroke-dashoffset:57.6;stroke-opacity:1"
       id="path4-2-3"
       inkscape:flatsided="false"
       sodipodi:sides="5"
       sodipodi:cx="-383.66849"
       sodipodi:cy="188.4865"
       sodipodi:r1="30.799999"
       sodipodi:r2="15.4"
       sodipodi:arg1="-1.5707963"
       sodipodi:arg2="-0.9424778"
       inkscape:rounded="0"
       inkscape:randomized="0"
       d="m -383.66849,157.6865 9.0519,18.34113 20.24064,2.94114 -14.64627,14.27659 3.45752,20.15886 -18.10379,-9.51772 -18.10378,9.51772 3.45751,-20.15886 -14.64627,-14.27659 20.24065,-2.94114 z"
       inkscape:transform-center-y="-2.9411382"
       transform="translate(827.00182,295.23464)" />
    <path
       sodipodi:type="star"
       style="fill:#ffffff;fill-opacity:1;stroke:none;stroke-width:9.6;stroke-dashoffset:57.6;stroke-opacity:1"
       id="path4-25-4"
       inkscape:flatsided="false"
       sodipodi:sides="5"
       sodipodi:cx="-383.66849"
       sodipodi:cy="188.4865"
       sodipodi:r1="30.799999"
       sodipodi:r2="15.4"
       sodipodi:arg1="-1.5707963"
       sodipodi:arg2="-0.9424778"
       inkscape:rounded="0"
       inkscape:randomized="0"
       d="m -383.66849,157.6865 9.0519,18.34113 20.24064,2.94114 -14.64627,14.27659 3.45752,20.15886 -18.10379,-9.51772 -18.10378,9.51772 3.45751,-20.15886 -14.64627,-14.27659 20.24065,-2.94114 z"
       inkscape:transform-center-y="-2.9411382"
       transform="translate(953.66849,295.23464)" />
    <path
       sodipodi:type="star"
       style="fill:#ffffff;fill-opacity:1;stroke:none;stroke-width:9.6;stroke-dashoffset:57.6;stroke-opacity:1"
       id="path4-3-0"
       inkscape:flatsided="false"
       sodipodi:sides="5"
       sodipodi:cx="-383.66849"
       sodipodi:cy="188.4865"
       sodipodi:r1="30.799999"
       sodipodi:r2="15.4"
       sodipodi:arg1="-1.5707963"
       sodipodi:arg2="-0.9424778"
       inkscape:rounded="0"
       inkscape:randomized="0"
       d="m -383.66849,157.6865 9.0519,18.34113 20.24064,2.94114 -14.64627,14.27659 3.45752,20.15886 -18.10379,-9.51772 -18.10378,9.51772 3.45751,-20.15886 -14.64627,-14.27659 20.24065,-2.94114 z"
       inkscape:transform-center-y="-2.9411382"
       transform="translate(1080.3352,295.23464)" />
    <path
       sodipodi:type="star"
       style="fill:#ffffff;fill-opacity:1;stroke:none;stroke-width:9.6;stroke-dashoffset:57.6;stroke-opacity:1"
       id="path4-1"
       inkscape:flatsided="false"
       sodipodi:sides="5"
       sodipodi:cx="-383.66849"
       sodipodi:cy="188.4865"
       sodipodi:r1="30.799999"
       sodipodi:r2="15.4"
       sodipodi:arg1="-1.5707963"
       sodipodi:arg2="-0.9424778"
       inkscape:rounded="0"
       inkscape:randomized="0"
       d="m -383.66849,157.6865 9.0519,18.34113 20.24064,2.94114 -14.64627,14.27659 3.45752,20.15886 -18.10379,-9.51772 -18.10378,9.51772 3.45751,-20.15886 -14.64627,-14.27659 20.24065,-2.94114 z"
       inkscape:transform-center-y="-2.9411382"
       transform="translate(1017.0018,-78.705358)" />
    <path
       sodipodi:type="star"
       style="fill:#ffffff;fill-opacity:1;stroke:none;stroke-width:9.6;stroke-dashoffset:57.6;stroke-opacity:1"
       id="path4-58"
       inkscape:flatsided="false"
       sodipodi:sides="5"
       sodipodi:cx="-383.66849"
       sodipodi:cy="188.4865"
       sodipodi:r1="30.799999"
       sodipodi:r2="15.4"
       sodipodi:arg1="-1.5707963"
       sodipodi:arg2="-0.9424778"
       inkscape:rounded="0"
       inkscape:randomized="0"
       d="m -383.66849,157.6865 9.0519,18.34113 20.24064,2.94114 -14.64627,14.27659 3.45752,20.15886 -18.10379,-9.51772 -18.10378,9.51772 3.45751,-20.15886 -14.64627,-14.27659 20.24065,-2.94114 z"
       inkscape:transform-center-y="-2.9411382"
       transform="translate(890.33516,-78.705358)" />
    <path
       sodipodi:type="star"
       style="fill:#ffffff;fill-opacity:1;stroke:none;stroke-width:9.6;stroke-dashoffset:57.6;stroke-opacity:1"
       id="path4-04"
       inkscape:flatsided="false"
       sodipodi:sides="5"
       sodipodi:cx="-383.66849"
       sodipodi:cy="188.4865"
       sodipodi:r1="30.799999"
       sodipodi:r2="15.4"
       sodipodi:arg1="-1.5707963"
       sodipodi:arg2="-0.9424778"
       inkscape:rounded="0"
       inkscape:randomized="0"
       d="m -383.66849,157.6865 9.0519,18.34113 20.24064,2.94114 -14.64627,14.27659 3.45752,20.15886 -18.10379,-9.51772 -18.10378,9.51772 3.45751,-20.15886 -14.64627,-14.27659 20.24065,-2.94114 z"
       inkscape:transform-center-y="-2.9411382"
       transform="translate(637.00182,-78.705358)" />
    <path
       sodipodi:type="star"
       style="fill:#ffffff;fill-opacity:1;stroke:none;stroke-width:9.6;stroke-dashoffset:57.6;stroke-opacity:1"
       id="path4-53"
       inkscape:flatsided="false"
       sodipodi:sides="5"
       sodipodi:cx="-383.66849"
       sodipodi:cy="188.4865"
       sodipodi:r1="30.799999"
       sodipodi:r2="15.4"
       sodipodi:arg1="-1.5707963"
       sodipodi:arg2="-0.9424778"
       inkscape:rounded="0"
       inkscape:randomized="0"
       d="m -383.66849,157.6865 9.0519,18.34113 20.24064,2.94114 -14.64627,14.27659 3.45752,20.15886 -18.10379,-9.51772 -18.10378,9.51772 3.45751,-20.15886 -14.64627,-14.27659 20.24065,-2.94114 z"
       inkscape:transform-center-y="-2.9411382"
       transform="translate(510.33516,-78.705358)" />
    <path
       sodipodi:type="star"
       style="fill:#ffffff;fill-opacity:1;stroke:none;stroke-width:9.6;stroke-dashoffset:57.6;stroke-opacity:1"
       id="path4-4"
       inkscape:flatsided="false"
       sodipodi:sides="5"
       sodipodi:cx="-383.66849"
       sodipodi:cy="188.4865"
       sodipodi:r1="30.799999"
       sodipodi:r2="15.4"
       sodipodi:arg1="-1.5707963"
       sodipodi:arg2="-0.9424778"
       inkscape:rounded="0"
       inkscape:randomized="0"
       d="m -383.66849,157.6865 9.0519,18.34113 20.24064,2.94114 -14.64627,14.27659 3.45752,20.15886 -18.10379,-9.51772 -18.10378,9.51772 3.45751,-20.15886 -14.64627,-14.27659 20.24065,-2.94114 z"
       inkscape:transform-center-y="-2.9411382"
       transform="translate(763.66849,-81.646496)" />
    <path
       sodipodi:type="star"
       style="fill:#ffffff;fill-opacity:1;stroke:none;stroke-width:9.6;stroke-dashoffset:57.6;stroke-opacity:1"
       id="path4-6"
       inkscape:flatsided="false"
       sodipodi:sides="5"
       sodipodi:cx="-383.66849"
       sodipodi:cy="188.4865"
       sodipodi:r1="30.799999"
       sodipodi:r2="15.4"
       sodipodi:arg1="-1.5707963"
       sodipodi:arg2="-0.9424778"
       inkscape:rounded="0"
       inkscape:randomized="0"
       d="m -383.66849,157.6865 9.0519,18.34113 20.24064,2.94114 -14.64627,14.27659 3.45752,20.15886 -18.10379,-9.51772 -18.10378,9.51772 3.45751,-20.15886 -14.64627,-14.27659 20.24065,-2.94114 z"
       inkscape:transform-center-y="-2.9411382"
       transform="translate(447.00182,-25.285358)" />
    <path
       sodipodi:type="star"
       style="fill:#ffffff;fill-opacity:1;stroke:none;stroke-width:9.6;stroke-dashoffset:57.6;stroke-opacity:1"
       id="path4-0-3"
       inkscape:flatsided="false"
       sodipodi:sides="5"
       sodipodi:cx="-383.66849"
       sodipodi:cy="188.4865"
       sodipodi:r1="30.799999"
       sodipodi:r2="15.4"
       sodipodi:arg1="-1.5707963"
       sodipodi:arg2="-0.9424778"
       inkscape:rounded="0"
       inkscape:randomized="0"
       d="m -383.66849,157.6865 9.0519,18.34113 20.24064,2.94114 -14.64627,14.27659 3.45752,20.15886 -18.10379,-9.51772 -18.10378,9.51772 3.45751,-20.15886 -14.64627,-14.27659 20.24065,-2.94114 z"
       inkscape:transform-center-y="-2.9411382"
       transform="translate(573.66849,-25.285358)" />
    <path
       sodipodi:type="star"
       style="fill:#ffffff;fill-opacity:1;stroke:none;stroke-width:9.6;stroke-dashoffset:57.6;stroke-opacity:1"
       id="path4-5-2"
       inkscape:flatsided="false"
       sodipodi:sides="5"
       sodipodi:cx="-383.66849"
       sodipodi:cy="188.4865"
       sodipodi:r1="30.799999"
       sodipodi:r2="15.4"
       sodipodi:arg1="-1.5707963"
       sodipodi:arg2="-0.9424778"
       inkscape:rounded="0"
       inkscape:randomized="0"
       d="m -383.66849,157.6865 9.0519,18.34113 20.24064,2.94114 -14.64627,14.27659 3.45752,20.15886 -18.10379,-9.51772 -18.10378,9.51772 3.45751,-20.15886 -14.64627,-14.27659 20.24065,-2.94114 z"
       inkscape:transform-center-y="-2.9411382"
       transform="translate(700.33516,-25.285358)" />
    <path
       sodipodi:type="star"
       style="fill:#ffffff;fill-opacity:1;stroke:none;stroke-width:9.6;stroke-dashoffset:57.6;stroke-opacity:1"
       id="path4-2-6"
       inkscape:flatsided="false"
       sodipodi:sides="5"
       sodipodi:cx="-383.66849"
       sodipodi:cy="188.4865"
       sodipodi:r1="30.799999"
       sodipodi:r2="15.4"
       sodipodi:arg1="-1.5707963"
       sodipodi:arg2="-0.9424778"
       inkscape:rounded="0"
       inkscape:randomized="0"
       d="m -383.66849,157.6865 9.0519,18.34113 20.24064,2.94114 -14.64627,14.27659 3.45752,20.15886 -18.10379,-9.51772 -18.10378,9.51772 3.45751,-20.15886 -14.64627,-14.27659 20.24065,-2.94114 z"
       inkscape:transform-center-y="-2.9411382"
       transform="translate(827.00182,-25.285358)" />
    <path
       sodipodi:type="star"
       style="fill:#ffffff;fill-opacity:1;stroke:none;stroke-width:9.6;stroke-dashoffset:57.6;stroke-opacity:1"
       id="path4-25-8"
       inkscape:flatsided="false"
       sodipodi:sides="5"
       sodipodi:cx="-383.66849"
       sodipodi:cy="188.4865"
       sodipodi:r1="30.799999"
       sodipodi:r2="15.4"
       sodipodi:arg1="-1.5707963"
       sodipodi:arg2="-0.9424778"
       inkscape:rounded="0"
       inkscape:randomized="0"
       d="m -383.66849,157.6865 9.0519,18.34113 20.24064,2.94114 -14.64627,14.27659 3.45752,20.15886 -18.10379,-9.51772 -18.10378,9.51772 3.45751,-20.15886 -14.64627,-14.27659 20.24065,-2.94114 z"
       inkscape:transform-center-y="-2.9411382"
       transform="translate(953.66849,-25.285358)" />
    <path
       sodipodi:type="star"
       style="fill:#ffffff;fill-opacity:1;stroke:none;stroke-width:9.6;stroke-dashoffset:57.6;stroke-opacity:1"
       id="path4-3-9"
       inkscape:flatsided="false"
       sodipodi:sides="5"
       sodipodi:cx="-383.66849"
       sodipodi:cy="188.4865"
       sodipodi:r1="30.799999"
       sodipodi:r2="15.4"
       sodipodi:arg1="-1.5707963"
       sodipodi:arg2="-0.9424778"
       inkscape:rounded="0"
       inkscape:randomized="0"
       d="m -383.66849,157.6865 9.0519,18.34113 20.24064,2.94114 -14.64627,14.27659 3.45752,20.15886 -18.10379,-9.51772 -18.10378,9.51772 3.45751,-20.15886 -14.64627,-14.27659 20.24065,-2.94114 z"
       inkscape:transform-center-y="-2.9411382"
       transform="translate(1080.3352,-25.285358)" />
    <path
       sodipodi:type="star"
       style="fill:#ffffff;fill-opacity:1;stroke:none;stroke-width:9.6;stroke-dashoffset:57.6;stroke-opacity:1"
       id="path4-1-1"
       inkscape:flatsided="false"
       sodipodi:sides="5"
       sodipodi:cx="-383.66849"
       sodipodi:cy="188.4865"
       sodipodi:r1="30.799999"
       sodipodi:r2="15.4"
       sodipodi:arg1="-1.5707963"
       sodipodi:arg2="-0.9424778"
       inkscape:rounded="0"
       inkscape:randomized="0"
       d="m -383.66849,157.6865 9.0519,18.34113 20.24064,2.94114 -14.64627,14.27659 3.45752,20.15886 -18.10379,-9.51772 -18.10378,9.51772 3.45751,-20.15886 -14.64627,-14.27659 20.24065,-2.94114 z"
       inkscape:transform-center-y="-2.9411382"
       transform="translate(1017.0018,28.134644)" />
    <path
       sodipodi:type="star"
       style="fill:#ffffff;fill-opacity:1;stroke:none;stroke-width:9.6;stroke-dashoffset:57.6;stroke-opacity:1"
       id="path4-58-4"
       inkscape:flatsided="false"
       sodipodi:sides="5"
       sodipodi:cx="-383.66849"
       sodipodi:cy="188.4865"
       sodipodi:r1="30.799999"
       sodipodi:r2="15.4"
       sodipodi:arg1="-1.5707963"
       sodipodi:arg2="-0.9424778"
       inkscape:rounded="0"
       inkscape:randomized="0"
       d="m -383.66849,157.6865 9.0519,18.34113 20.24064,2.94114 -14.64627,14.27659 3.45752,20.15886 -18.10379,-9.51772 -18.10378,9.51772 3.45751,-20.15886 -14.64627,-14.27659 20.24065,-2.94114 z"
       inkscape:transform-center-y="-2.9411382"
       transform="translate(890.33516,28.134644)" />
    <path
       sodipodi:type="star"
       style="fill:#ffffff;fill-opacity:1;stroke:none;stroke-width:9.6;stroke-dashoffset:57.6;stroke-opacity:1"
       id="path4-04-8"
       inkscape:flatsided="false"
       sodipodi:sides="5"
       sodipodi:cx="-383.66849"
       sodipodi:cy="188.4865"
       sodipodi:r1="30.799999"
       sodipodi:r2="15.4"
       sodipodi:arg1="-1.5707963"
       sodipodi:arg2="-0.9424778"
       inkscape:rounded="0"
       inkscape:randomized="0"
       d="m -383.66849,157.6865 9.0519,18.34113 20.24064,2.94114 -14.64627,14.27659 3.45752,20.15886 -18.10379,-9.51772 -18.10378,9.51772 3.45751,-20.15886 -14.64627,-14.27659 20.24065,-2.94114 z"
       inkscape:transform-center-y="-2.9411382"
       transform="translate(637.00182,28.134644)" />
    <path
       sodipodi:type="star"
       style="fill:#ffffff;fill-opacity:1;stroke:none;stroke-width:9.6;stroke-dashoffset:57.6;stroke-opacity:1"
       id="path4-53-8"
       inkscape:flatsided="false"
       sodipodi:sides="5"
       sodipodi:cx="-383.66849"
       sodipodi:cy="188.4865"
       sodipodi:r1="30.799999"
       sodipodi:r2="15.4"
       sodipodi:arg1="-1.5707963"
       sodipodi:arg2="-0.9424778"
       inkscape:rounded="0"
       inkscape:randomized="0"
       d="m -383.66849,157.6865 9.0519,18.34113 20.24064,2.94114 -14.64627,14.27659 3.45752,20.15886 -18.10379,-9.51772 -18.10378,9.51772 3.45751,-20.15886 -14.64627,-14.27659 20.24065,-2.94114 z"
       inkscape:transform-center-y="-2.9411382"
       transform="translate(510.33516,28.134644)" />
    <path
       sodipodi:type="star"
       style="fill:#ffffff;fill-opacity:1;stroke:none;stroke-width:9.6;stroke-dashoffset:57.6;stroke-opacity:1"
       id="path4-4-7"
       inkscape:flatsided="false"
       sodipodi:sides="5"
       sodipodi:cx="-383.66849"
       sodipodi:cy="188.4865"
       sodipodi:r1="30.799999"
       sodipodi:r2="15.4"
       sodipodi:arg1="-1.5707963"
       sodipodi:arg2="-0.9424778"
       inkscape:rounded="0"
       inkscape:randomized="0"
       d="m -383.66849,157.6865 9.0519,18.34113 20.24064,2.94114 -14.64627,14.27659 3.45752,20.15886 -18.10379,-9.51772 -18.10378,9.51772 3.45751,-20.15886 -14.64627,-14.27659 20.24065,-2.94114 z"
       inkscape:transform-center-y="-2.9411382"
       transform="translate(763.66849,25.193506)" />
    <path
       sodipodi:type="star"
       style="fill:#ffffff;fill-opacity:1;stroke:none;stroke-width:9.6;stroke-dashoffset:57.6;stroke-opacity:1"
       id="path4-14"
       inkscape:flatsided="false"
       sodipodi:sides="5"
       sodipodi:cx="-383.66849"
       sodipodi:cy="188.4865"
       sodipodi:r1="30.799999"
       sodipodi:r2="15.4"
       sodipodi:arg1="-1.5707963"
       sodipodi:arg2="-0.9424778"
       inkscape:rounded="0"
       inkscape:randomized="0"
       d="m -383.66849,157.6865 9.0519,18.34113 20.24064,2.94114 -14.64627,14.27659 3.45752,20.15886 -18.10379,-9.51772 -18.10378,9.51772 3.45751,-20.15886 -14.64627,-14.27659 20.24065,-2.94114 z"
       inkscape:transform-center-y="-2.9411382"
       transform="translate(447.00182,81.554642)" />
    <path
       sodipodi:type="star"
       style="fill:#ffffff;fill-opacity:1;stroke:none;stroke-width:9.6;stroke-dashoffset:57.6;stroke-opacity:1"
       id="path4-0-9"
       inkscape:flatsided="false"
       sodipodi:sides="5"
       sodipodi:cx="-383.66849"
       sodipodi:cy="188.4865"
       sodipodi:r1="30.799999"
       sodipodi:r2="15.4"
       sodipodi:arg1="-1.5707963"
       sodipodi:arg2="-0.9424778"
       inkscape:rounded="0"
       inkscape:randomized="0"
       d="m -383.66849,157.6865 9.0519,18.34113 20.24064,2.94114 -14.64627,14.27659 3.45752,20.15886 -18.10379,-9.51772 -18.10378,9.51772 3.45751,-20.15886 -14.64627,-14.27659 20.24065,-2.94114 z"
       inkscape:transform-center-y="-2.9411382"
       transform="translate(573.66849,81.554642)" />
    <path
       sodipodi:type="star"
       style="fill:#ffffff;fill-opacity:1;stroke:none;stroke-width:9.6;stroke-dashoffset:57.6;stroke-opacity:1"
       id="path4-5-5"
       inkscape:flatsided="false"
       sodipodi:sides="5"
       sodipodi:cx="-383.66849"
       sodipodi:cy="188.4865"
       sodipodi:r1="30.799999"
       sodipodi:r2="15.4"
       sodipodi:arg1="-1.5707963"
       sodipodi:arg2="-0.9424778"
       inkscape:rounded="0"
       inkscape:randomized="0"
       d="m -383.66849,157.6865 9.0519,18.34113 20.24064,2.94114 -14.64627,14.27659 3.45752,20.15886 -18.10379,-9.51772 -18.10378,9.51772 3.45751,-20.15886 -14.64627,-14.27659 20.24065,-2.94114 z"
       inkscape:transform-center-y="-2.9411382"
       transform="translate(700.33516,81.554642)" />
    <path
       sodipodi:type="star"
       style="fill:#ffffff;fill-opacity:1;stroke:none;stroke-width:9.6;stroke-dashoffset:57.6;stroke-opacity:1"
       id="path4-2-9"
       inkscape:flatsided="false"
       sodipodi:sides="5"
       sodipodi:cx="-383.66849"
       sodipodi:cy="188.4865"
       sodipodi:r1="30.799999"
       sodipodi:r2="15.4"
       sodipodi:arg1="-1.5707963"
       sodipodi:arg2="-0.9424778"
       inkscape:rounded="0"
       inkscape:randomized="0"
       d="m -383.66849,157.6865 9.0519,18.34113 20.24064,2.94114 -14.64627,14.27659 3.45752,20.15886 -18.10379,-9.51772 -18.10378,9.51772 3.45751,-20.15886 -14.64627,-14.27659 20.24065,-2.94114 z"
       inkscape:transform-center-y="-2.9411382"
       transform="translate(827.00182,81.554642)" />
    <path
       sodipodi:type="star"
       style="fill:#ffffff;fill-opacity:1;stroke:none;stroke-width:9.6;stroke-dashoffset:57.6;stroke-opacity:1"
       id="path4-25-0"
       inkscape:flatsided="false"
       sodipodi:sides="5"
       sodipodi:cx="-383.66849"
       sodipodi:cy="188.4865"
       sodipodi:r1="30.799999"
       sodipodi:r2="15.4"
       sodipodi:arg1="-1.5707963"
       sodipodi:arg2="-0.9424778"
       inkscape:rounded="0"
       inkscape:randomized="0"
       d="m -383.66849,157.6865 9.0519,18.34113 20.24064,2.94114 -14.64627,14.27659 3.45752,20.15886 -18.10379,-9.51772 -18.10378,9.51772 3.45751,-20.15886 -14.64627,-14.27659 20.24065,-2.94114 z"
       inkscape:transform-center-y="-2.9411382"
       transform="translate(953.66849,81.554642)" />
    <path
       sodipodi:type="star"
       style="fill:#ffffff;fill-opacity:1;stroke:none;stroke-width:9.6;stroke-dashoffset:57.6;stroke-opacity:1"
       id="path4-3-93"
       inkscape:flatsided="false"
       sodipodi:sides="5"
       sodipodi:cx="-383.66849"
       sodipodi:cy="188.4865"
       sodipodi:r1="30.799999"
       sodipodi:r2="15.4"
       sodipodi:arg1="-1.5707963"
       sodipodi:arg2="-0.9424778"
       inkscape:rounded="0"
       inkscape:randomized="0"
       d="m -383.66849,157.6865 9.0519,18.34113 20.24064,2.94114 -14.64627,14.27659 3.45752,20.15886 -18.10379,-9.51772 -18.10378,9.51772 3.45751,-20.15886 -14.64627,-14.27659 20.24065,-2.94114 z"
       inkscape:transform-center-y="-2.9411382"
       transform="translate(1080.3352,81.554642)" />
    <path
       sodipodi:type="star"
       style="fill:#ffffff;fill-opacity:1;stroke:none;stroke-width:9.6;stroke-dashoffset:57.6;stroke-opacity:1"
       id="path4-1-4"
       inkscape:flatsided="false"
       sodipodi:sides="5"
       sodipodi:cx="-383.66849"
       sodipodi:cy="188.4865"
       sodipodi:r1="30.799999"
       sodipodi:r2="15.4"
       sodipodi:arg1="-1.5707963"
       sodipodi:arg2="-0.9424778"
       inkscape:rounded="0"
       inkscape:randomized="0"
       d="m -383.66849,157.6865 9.0519,18.34113 20.24064,2.94114 -14.64627,14.27659 3.45752,20.15886 -18.10379,-9.51772 -18.10378,9.51772 3.45751,-20.15886 -14.64627,-14.27659 20.24065,-2.94114 z"
       inkscape:transform-center-y="-2.9411382"
       transform="translate(1017.0018,134.97464)" />
    <path
       sodipodi:type="star"
       style="fill:#ffffff;fill-opacity:1;stroke:none;stroke-width:9.6;stroke-dashoffset:57.6;stroke-opacity:1"
       id="path4-58-0"
       inkscape:flatsided="false"
       sodipodi:sides="5"
       sodipodi:cx="-383.66849"
       sodipodi:cy="188.4865"
       sodipodi:r1="30.799999"
       sodipodi:r2="15.4"
       sodipodi:arg1="-1.5707963"
       sodipodi:arg2="-0.9424778"
       inkscape:rounded="0"
       inkscape:randomized="0"
       d="m -383.66849,157.6865 9.0519,18.34113 20.24064,2.94114 -14.64627,14.27659 3.45752,20.15886 -18.10379,-9.51772 -18.10378,9.51772 3.45751,-20.15886 -14.64627,-14.27659 20.24065,-2.94114 z"
       inkscape:transform-center-y="-2.9411382"
       transform="translate(890.33516,134.97464)" />
    <path
       sodipodi:type="star"
       style="fill:#ffffff;fill-opacity:1;stroke:none;stroke-width:9.6;stroke-dashoffset:57.6;stroke-opacity:1"
       id="path4-04-7"
       inkscape:flatsided="false"
       sodipodi:sides="5"
       sodipodi:cx="-383.66849"
       sodipodi:cy="188.4865"
       sodipodi:r1="30.799999"
       sodipodi:r2="15.4"
       sodipodi:arg1="-1.5707963"
       sodipodi:arg2="-0.9424778"
       inkscape:rounded="0"
       inkscape:randomized="0"
       d="m -383.66849,157.6865 9.0519,18.34113 20.24064,2.94114 -14.64627,14.27659 3.45752,20.15886 -18.10379,-9.51772 -18.10378,9.51772 3.45751,-20.15886 -14.64627,-14.27659 20.24065,-2.94114 z"
       inkscape:transform-center-y="-2.9411382"
       transform="translate(637.00182,134.97464)" />
    <path
       sodipodi:type="star"
       style="fill:#ffffff;fill-opacity:1;stroke:none;stroke-width:9.6;stroke-dashoffset:57.6;stroke-opacity:1"
       id="path4-53-5"
       inkscape:flatsided="false"
       sodipodi:sides="5"
       sodipodi:cx="-383.66849"
       sodipodi:cy="188.4865"
       sodipodi:r1="30.799999"
       sodipodi:r2="15.4"
       sodipodi:arg1="-1.5707963"
       sodipodi:arg2="-0.9424778"
       inkscape:rounded="0"
       inkscape:randomized="0"
       d="m -383.66849,157.6865 9.0519,18.34113 20.24064,2.94114 -14.64627,14.27659 3.45752,20.15886 -18.10379,-9.51772 -18.10378,9.51772 3.45751,-20.15886 -14.64627,-14.27659 20.24065,-2.94114 z"
       inkscape:transform-center-y="-2.9411382"
       transform="translate(510.33516,134.97464)" />
    <path
       sodipodi:type="star"
       style="fill:#ffffff;fill-opacity:1;stroke:none;stroke-width:9.6;stroke-dashoffset:57.6;stroke-opacity:1"
       id="path4-4-75"
       inkscape:flatsided="false"
       sodipodi:sides="5"
       sodipodi:cx="-383.66849"
       sodipodi:cy="188.4865"
       sodipodi:r1="30.799999"
       sodipodi:r2="15.4"
       sodipodi:arg1="-1.5707963"
       sodipodi:arg2="-0.9424778"
       inkscape:rounded="0"
       inkscape:randomized="0"
       d="m -383.66849,157.6865 9.0519,18.34113 20.24064,2.94114 -14.64627,14.27659 3.45752,20.15886 -18.10379,-9.51772 -18.10378,9.51772 3.45751,-20.15886 -14.64627,-14.27659 20.24065,-2.94114 z"
       inkscape:transform-center-y="-2.9411382"
       transform="translate(763.66849,132.0335)" />
    <path
       sodipodi:type="star"
       style="fill:#ffffff;fill-opacity:1;stroke:none;stroke-width:9.6;stroke-dashoffset:57.6;stroke-opacity:1"
       id="path4-8"
       inkscape:flatsided="false"
       sodipodi:sides="5"
       sodipodi:cx="-383.66849"
       sodipodi:cy="188.4865"
       sodipodi:r1="30.799999"
       sodipodi:r2="15.4"
       sodipodi:arg1="-1.5707963"
       sodipodi:arg2="-0.9424778"
       inkscape:rounded="0"
       inkscape:randomized="0"
       d="m -383.66849,157.6865 9.0519,18.34113 20.24064,2.94114 -14.64627,14.27659 3.45752,20.15886 -18.10379,-9.51772 -18.10378,9.51772 3.45751,-20.15886 -14.64627,-14.27659 20.24065,-2.94114 z"
       inkscape:transform-center-y="-2.9411382"
       transform="translate(447.00182,188.39464)" />
    <path
       sodipodi:type="star"
       style="fill:#ffffff;fill-opacity:1;stroke:none;stroke-width:9.6;stroke-dashoffset:57.6;stroke-opacity:1"
       id="path4-0-4"
       inkscape:flatsided="false"
       sodipodi:sides="5"
       sodipodi:cx="-383.66849"
       sodipodi:cy="188.4865"
       sodipodi:r1="30.799999"
       sodipodi:r2="15.4"
       sodipodi:arg1="-1.5707963"
       sodipodi:arg2="-0.9424778"
       inkscape:rounded="0"
       inkscape:randomized="0"
       d="m -383.66849,157.6865 9.0519,18.34113 20.24064,2.94114 -14.64627,14.27659 3.45752,20.15886 -18.10379,-9.51772 -18.10378,9.51772 3.45751,-20.15886 -14.64627,-14.27659 20.24065,-2.94114 z"
       inkscape:transform-center-y="-2.9411382"
       transform="translate(573.66849,188.39464)" />
    <path
       sodipodi:type="star"
       style="fill:#ffffff;fill-opacity:1;stroke:none;stroke-width:9.6;stroke-dashoffset:57.6;stroke-opacity:1"
       id="path4-5-0"
       inkscape:flatsided="false"
       sodipodi:sides="5"
       sodipodi:cx="-383.66849"
       sodipodi:cy="188.4865"
       sodipodi:r1="30.799999"
       sodipodi:r2="15.4"
       sodipodi:arg1="-1.5707963"
       sodipodi:arg2="-0.9424778"
       inkscape:rounded="0"
       inkscape:randomized="0"
       d="m -383.66849,157.6865 9.0519,18.34113 20.24064,2.94114 -14.64627,14.27659 3.45752,20.15886 -18.10379,-9.51772 -18.10378,9.51772 3.45751,-20.15886 -14.64627,-14.27659 20.24065,-2.94114 z"
       inkscape:transform-center-y="-2.9411382"
       transform="translate(700.33516,188.39464)" />
    <path
       sodipodi:type="star"
       style="fill:#ffffff;fill-opacity:1;stroke:none;stroke-width:9.6;stroke-dashoffset:57.6;stroke-opacity:1"
       id="path4-2-0"
       inkscape:flatsided="false"
       sodipodi:sides="5"
       sodipodi:cx="-383.66849"
       sodipodi:cy="188.4865"
       sodipodi:r1="30.799999"
       sodipodi:r2="15.4"
       sodipodi:arg1="-1.5707963"
       sodipodi:arg2="-0.9424778"
       inkscape:rounded="0"
       inkscape:randomized="0"
       d="m -383.66849,157.6865 9.0519,18.34113 20.24064,2.94114 -14.64627,14.27659 3.45752,20.15886 -18.10379,-9.51772 -18.10378,9.51772 3.45751,-20.15886 -14.64627,-14.27659 20.24065,-2.94114 z"
       inkscape:transform-center-y="-2.9411382"
       transform="translate(827.00182,188.39464)" />
    <path
       sodipodi:type="star"
       style="fill:#ffffff;fill-opacity:1;stroke:none;stroke-width:9.6;stroke-dashoffset:57.6;stroke-opacity:1"
       id="path4-25-6"
       inkscape:flatsided="false"
       sodipodi:sides="5"
       sodipodi:cx="-383.66849"
       sodipodi:cy="188.4865"
       sodipodi:r1="30.799999"
       sodipodi:r2="15.4"
       sodipodi:arg1="-1.5707963"
       sodipodi:arg2="-0.9424778"
       inkscape:rounded="0"
       inkscape:randomized="0"
       d="m -383.66849,157.6865 9.0519,18.34113 20.24064,2.94114 -14.64627,14.27659 3.45752,20.15886 -18.10379,-9.51772 -18.10378,9.51772 3.45751,-20.15886 -14.64627,-14.27659 20.24065,-2.94114 z"
       inkscape:transform-center-y="-2.9411382"
       transform="translate(953.66849,188.39464)" />
    <path
       sodipodi:type="star"
       style="fill:#ffffff;fill-opacity:1;stroke:none;stroke-width:9.6;stroke-dashoffset:57.6;stroke-opacity:1"
       id="path4-3-2"
       inkscape:flatsided="false"
       sodipodi:sides="5"
       sodipodi:cx="-383.66849"
       sodipodi:cy="188.4865"
       sodipodi:r1="30.799999"
       sodipodi:r2="15.4"
       sodipodi:arg1="-1.5707963"
       sodipodi:arg2="-0.9424778"
       inkscape:rounded="0"
       inkscape:randomized="0"
       d="m -383.66849,157.6865 9.0519,18.34113 20.24064,2.94114 -14.64627,14.27659 3.45752,20.15886 -18.10379,-9.51772 -18.10378,9.51772 3.45751,-20.15886 -14.64627,-14.27659 20.24065,-2.94114 z"
       inkscape:transform-center-y="-2.9411382"
       transform="translate(1080.3352,188.39464)" />
    <path
       sodipodi:type="star"
       style="fill:#ffffff;fill-opacity:1;stroke:none;stroke-width:9.6;stroke-dashoffset:57.6;stroke-opacity:1"
       id="path4-1-47"
       inkscape:flatsided="false"
       sodipodi:sides="5"
       sodipodi:cx="-383.66849"
       sodipodi:cy="188.4865"
       sodipodi:r1="30.799999"
       sodipodi:r2="15.4"
       sodipodi:arg1="-1.5707963"
       sodipodi:arg2="-0.9424778"
       inkscape:rounded="0"
       inkscape:randomized="0"
       d="m -383.66849,157.6865 9.0519,18.34113 20.24064,2.94114 -14.64627,14.27659 3.45752,20.15886 -18.10379,-9.51772 -18.10378,9.51772 3.45751,-20.15886 -14.64627,-14.27659 20.24065,-2.94114 z"
       inkscape:transform-center-y="-2.9411382"
       transform="translate(1017.0018,241.81464)" />
    <path
       sodipodi:type="star"
       style="fill:#ffffff;fill-opacity:1;stroke:none;stroke-width:9.6;stroke-dashoffset:57.6;stroke-opacity:1"
       id="path4-58-41"
       inkscape:flatsided="false"
       sodipodi:sides="5"
       sodipodi:cx="-383.66849"
       sodipodi:cy="188.4865"
       sodipodi:r1="30.799999"
       sodipodi:r2="15.4"
       sodipodi:arg1="-1.5707963"
       sodipodi:arg2="-0.9424778"
       inkscape:rounded="0"
       inkscape:randomized="0"
       d="m -383.66849,157.6865 9.0519,18.34113 20.24064,2.94114 -14.64627,14.27659 3.45752,20.15886 -18.10379,-9.51772 -18.10378,9.51772 3.45751,-20.15886 -14.64627,-14.27659 20.24065,-2.94114 z"
       inkscape:transform-center-y="-2.9411382"
       transform="translate(890.33516,241.81464)" />
    <path
       sodipodi:type="star"
       style="fill:#ffffff;fill-opacity:1;stroke:none;stroke-width:9.6;stroke-dashoffset:57.6;stroke-opacity:1"
       id="path4-04-85"
       inkscape:flatsided="false"
       sodipodi:sides="5"
       sodipodi:cx="-383.66849"
       sodipodi:cy="188.4865"
       sodipodi:r1="30.799999"
       sodipodi:r2="15.4"
       sodipodi:arg1="-1.5707963"
       sodipodi:arg2="-0.9424778"
       inkscape:rounded="0"
       inkscape:randomized="0"
       d="m -383.66849,157.6865 9.0519,18.34113 20.24064,2.94114 -14.64627,14.27659 3.45752,20.15886 -18.10379,-9.51772 -18.10378,9.51772 3.45751,-20.15886 -14.64627,-14.27659 20.24065,-2.94114 z"
       inkscape:transform-center-y="-2.9411382"
       transform="translate(637.00182,241.81464)" />
    <path
       sodipodi:type="star"
       style="fill:#ffffff;fill-opacity:1;stroke:none;stroke-width:9.6;stroke-dashoffset:57.6;stroke-opacity:1"
       id="path4-53-89"
       inkscape:flatsided="false"
       sodipodi:sides="5"
       sodipodi:cx="-383.66849"
       sodipodi:cy="188.4865"
       sodipodi:r1="30.799999"
       sodipodi:r2="15.4"
       sodipodi:arg1="-1.5707963"
       sodipodi:arg2="-0.9424778"
       inkscape:rounded="0"
       inkscape:randomized="0"
       d="m -383.66849,157.6865 9.0519,18.34113 20.24064,2.94114 -14.64627,14.27659 3.45752,20.15886 -18.10379,-9.51772 -18.10378,9.51772 3.45751,-20.15886 -14.64627,-14.27659 20.24065,-2.94114 z"
       inkscape:transform-center-y="-2.9411382"
       transform="translate(510.33516,241.81464)" />
    <path
       sodipodi:type="star"
       style="fill:#ffffff;fill-opacity:1;stroke:none;stroke-width:9.6;stroke-dashoffset:57.6;stroke-opacity:1"
       id="path4-4-9"
       inkscape:flatsided="false"
       sodipodi:sides="5"
       sodipodi:cx="-383.66849"
       sodipodi:cy="188.4865"
       sodipodi:r1="30.799999"
       sodipodi:r2="15.4"
       sodipodi:arg1="-1.5707963"
       sodipodi:arg2="-0.9424778"
       inkscape:rounded="0"
       inkscape:randomized="0"
       d="m -383.66849,157.6865 9.0519,18.34113 20.24064,2.94114 -14.64627,14.27659 3.45752,20.15886 -18.10379,-9.51772 -18.10378,9.51772 3.45751,-20.15886 -14.64627,-14.27659 20.24065,-2.94114 z"
       inkscape:transform-center-y="-2.9411382"
       transform="translate(763.66849,238.8735)" />
  </g>
</svg>
