<?xml version="1.0" encoding="UTF-8" standalone="no"?>
<svg
   width="500"
   height="500"
   viewBox="-50 -50 100 100"
   version="1.1"
   id="svg1"
   sodipodi:docname="im1.svg"
   inkscape:version="1.3 (0e150ed, 2023-07-21)"
   xmlns:inkscape="http://www.inkscape.org/namespaces/inkscape"
   xmlns:sodipodi="http://sodipodi.sourceforge.net/DTD/sodipodi-0.dtd"
   xmlns:xlink="http://www.w3.org/1999/xlink"
   xmlns="http://www.w3.org/2000/svg"
   xmlns:svg="http://www.w3.org/2000/svg">
  <defs
     id="defs1">
    <linearGradient
       id="linearGradient3"
       inkscape:collect="always">
      <stop
         style="stop-color:#ffec00;stop-opacity:1;"
         offset="0.21281464"
         id="stop3" />
      <stop
         style="stop-color:#f2f2f2;stop-opacity:1;"
         offset="0.24485125"
         id="stop6" />
      <stop
         style="stop-color:#1ab4ff;stop-opacity:1;"
         offset="0.71853542"
         id="stop5" />
      <stop
         style="stop-color:#5a009a;stop-opacity:1;"
         offset="1"
         id="stop4" />
    </linearGradient>
    <linearGradient
       id="linearGradient1"
       inkscape:collect="always">
      <stop
         style="stop-color:#ffffff;stop-opacity:1;"
         offset="0.50282043"
         id="stop1" />
      <stop
         style="stop-color:#000000;stop-opacity:1;"
         offset="0.62242568"
         id="stop2" />
      <stop
         style="stop-color:#ffffff;stop-opacity:1;"
         offset="0.76887876"
         id="stop7" />
    </linearGradient>
    <radialGradient
       inkscape:collect="always"
       xlink:href="#linearGradient1"
       id="radialGradient2"
       cx="-1.6697754e-13"
       cy="-1.0658141e-13"
       fx="-1.6697754e-13"
       fy="-1.0658141e-13"
       r="53.788251"
       gradientUnits="userSpaceOnUse" />
    <radialGradient
       inkscape:collect="always"
       xlink:href="#linearGradient3"
       id="radialGradient4"
       cx="0"
       cy="0"
       fx="0"
       fy="0"
       r="50.000001"
       gradientUnits="userSpaceOnUse" />
  </defs>
  <sodipodi:namedview
     id="namedview1"
     pagecolor="#ffffff"
     bordercolor="#000000"
     borderopacity="0.25"
     inkscape:showpageshadow="2"
     inkscape:pageopacity="0.0"
     inkscape:pagecheckerboard="0"
     inkscape:deskcolor="#d1d1d1"
     inkscape:zoom="0.88080046"
     inkscape:cx="219.68653"
     inkscape:cy="234.44584"
     inkscape:window-width="1440"
     inkscape:window-height="766"
     inkscape:window-x="0"
     inkscape:window-y="25"
     inkscape:window-maximized="1"
     inkscape:current-layer="svg1" />
  <rect
     style="fill:url(#radialGradient4);fill-opacity:1;fill-rule:evenodd;stroke:#000000;stroke-width:1.18577;stroke-linecap:butt;stroke-linejoin:miter;stroke-miterlimit:11.6;stroke-dasharray:none;stroke-opacity:1;paint-order:markers fill stroke"
     id="rect3"
     width="98.814232"
     height="98.814232"
     x="-49.407116"
     y="-49.407116" />
  <polygon
     points="2.7768816,3.6077928 -11.161531,22.792372 46.392207,-19.022866 1.2865556,-4.3671518 25,-4.3671518 -42.658477,-26.350724 -4.2893184,1.5261021 -18.227731,-17.658477 3.7558406,50 3.7558406,2.5731112 -3.5720167,25.125937 38.243222,-32.427802 -0.12593703,-4.5509757 22.426889,-11.878833 -48.713444,-11.878833 -3.6077928,2.7768816 -22.792372,-11.161531 19.022866,46.392207 4.3671518,1.2865556 4.3671518,25 26.350724,-42.658477 -1.5261021,-4.2893184 17.658477,-18.227731 -50,3.7558406 -2.5731112,3.7558406 -25.125937,-3.5720167 32.427802,38.243222 4.5509757,-0.12593703 11.878833,22.426889 11.878833,-48.713444 -2.7768816,-3.6077928 11.161531,-22.792372 -46.392207,19.022866 -1.2865556,4.3671518 -25,4.3671518 42.658477,26.350724 4.2893184,-1.5261021 18.227731,17.658477 -3.7558406,-50 -3.7558406,-2.5731112 3.5720167,-25.125937 -38.243222,32.427802 0.12593703,4.5509757 -22.426889,11.878833 48.713444,11.878833 3.6077928,-2.7768816 22.792372,11.161531 -19.022866,-46.392207 -4.3671518,-1.2865556 -4.3671518,-25 -26.350724,42.658477 1.5261021,4.2893184 -17.658477,18.227731 50,-3.7558406 2.5731112,-3.7558406 25.125937,3.5720167 -32.427802,-38.243222 -4.5509757,0.12593703 -11.878833,-22.426889 -11.878833,48.713444 "
     fill="none"
     stroke="blue"
     stroke-width="0.1"
     stroke-linecap="round"
     stroke-linejoin="round"
     id="polygon1"
     style="fill:url(#radialGradient2);fill-rule:evenodd;stroke:#000000;stroke-width:1.2;stroke-linecap:butt;stroke-linejoin:miter;stroke-miterlimit:11.6;stroke-dasharray:none;stroke-opacity:1;paint-order:markers fill stroke"
     transform="scale(0.92226325)" />
</svg>
