<?xml version="1.0" encoding="UTF-8" standalone="no"?>
<svg
   width="500"
   height="500"
   viewBox="-50 -50 100 100"
   version="1.1"
   id="svg1"
   sodipodi:docname="im2.svg"
   inkscape:version="1.3 (0e150ed, 2023-07-21)"
   xmlns:inkscape="http://www.inkscape.org/namespaces/inkscape"
   xmlns:sodipodi="http://sodipodi.sourceforge.net/DTD/sodipodi-0.dtd"
   xmlns="http://www.w3.org/2000/svg"
   xmlns:svg="http://www.w3.org/2000/svg">
  <defs
     id="defs1" />
  <sodipodi:namedview
     id="namedview1"
     pagecolor="#ffffff"
     bordercolor="#000000"
     borderopacity="0.25"
     inkscape:showpageshadow="2"
     inkscape:pageopacity="0.0"
     inkscape:pagecheckerboard="0"
     inkscape:deskcolor="#d1d1d1"
     inkscape:zoom="0.95987535"
     inkscape:cx="227.63372"
     inkscape:cy="253.67877"
     inkscape:window-width="1440"
     inkscape:window-height="766"
     inkscape:window-x="0"
     inkscape:window-y="25"
     inkscape:window-maximized="1"
     inkscape:current-layer="svg1" />
  <polygon
     points="-13.643768,-10.827646 -2.3700303,50 44.181263,9.5335783 -14.139295,-9.9802074 -1.390963,49.99598 43.681457,8.6947168 -14.606384,-9.1256645 -0.42022968,49.96392 43.161791,7.8772519 -15.045006,-8.2649213 0.54137791,49.904254 42.62304,7.0816432 -15.45516,-7.3988784 1.4930853,49.817439 42.065991,6.3083241 -15.836874,-6.5284322 2.4341357,49.703955 41.491441,5.5577018 -16.190203,-5.6544741 3.3637906,49.564301 40.900194,4.8301572 -16.515228,-4.7778893 4.2813305,49.398997 40.293063,4.1260448 -16.812056,-3.8995563 5.1860551,49.208583 39.670867,3.4456922 -17.080824,-3.0203462 6.0772844,48.993616 39.034431,2.7894002 -17.321691,-2.1411216 6.9543584,48.754675 38.384588,2.1574431 -17.534845,-1.262736 7.8166386,48.492352 37.722172,1.5500677 -17.720497,-0.38603293 8.6635075,48.207259 37.048022,0.9674943 -17.878885,0.48815444 9.4943697,47.900023 36.36298,0.40991585 -18.010271,1.3590045 10.308652,47.571287 35.667889,-0.12250155 -18.114941,2.2257075 11.105804,47.221709 34.963596,-0.62961878 -18.193204,3.0874668 11.885298,46.851959 34.250943,-1.1113237 -18.245394,3.9434987 12.646629,46.462722 33.530778,-1.5675308 -18.271867,4.7930341 13.389319,46.054694 32.803941,-1.9981815 -18.273,5.6353184 14.11291,45.628586 32.071275,-2.4032438 -18.249194,6.4696125 14.81697,45.185115 31.333617,-2.7827119 -18.200869,7.2951932 15.501091,44.725012 30.591802,-3.1366064 -18.128468,8.111354 16.164892,44.249015 29.846658,-3.464974 -18.032452,8.9174057 16.808014,43.757871 29.099011,-3.7678871 -17.913302,9.7126767 17.430125,43.252336 28.349678,-4.0454435 -17.771518,10.496514 18.030917,42.733171 27.59947,-4.2977666 -17.607619,11.268282 18.610109,42.201145 26.84919,-4.5250045 -17.422141,12.027368 19.167445,41.65703 26.099634,-4.7273301 -17.215635,12.773174 19.702693,41.101604 25.351586,-4.9049406 -16.988671,13.505127 20.215649,40.535648 24.605823,-5.0580571 -16.741834,14.222672 20.706133,39.959947 23.86311,-5.1869242 -16.475722,14.925276 21.173993,39.375287 23.124201,-5.2918097 -16.19095,15.612426 21.6191,38.782455 22.389836,-5.3730042 -15.888143,16.283635 22.041352,38.182239 21.660746,-5.4308205 -15.567942,16.938432 22.440672,37.575426 20.937647,-5.4655931 -15.230998,17.576375 22.81701,36.962804 20.221239,-5.477678 -14.877975,18.19704 23.170339,36.345155 19.51221,-5.4674521 -14.509544,18.800029 23.500659,35.723262 18.811232,-5.4353122 -14.12639,19.384966 23.807995,35.097903 18.118962,-5.3816752 -13.729204,19.951499 24.092396,34.469851 17.436038,-5.306977 -13.318686,20.4993 24.353937,33.839876 16.763085,-5.2116724 -12.895544,21.028065 24.592714,33.208739 16.100706,-5.096234 -12.460492,21.537514 24.808853,32.577197 15.449491,-4.9611518 -12.01425,22.027391 25.002498,31.945999 14.810008,-4.8069328 -11.557543,22.497465 25.17382,31.315886 14.182806,-4.6341001 -11.091101,22.94753 25.323013,30.687589 13.568418,-4.4431922 -10.615657,23.377403 25.450292,30.061832 12.967353,-4.2347629 -10.131945,23.786927 25.555898,29.439326 12.380102,-4.0093796 -9.6407048,24.175968 25.64009,28.820773 11.807136,-3.7676239 -9.1426737,24.54442 25.703152,28.206864 11.248904,-3.5100896 -8.6385913,24.892197 25.745388,27.598275 10.705833,-3.2373833 -8.1291961,25.219241 25.767123,26.995672 10.178329,-2.9501224 -7.6152258,25.525517 25.768702,26.399706 9.6667765,-2.6489355 -7.0974158,25.811016 25.75049,25.811016 9.1715377,-2.3344609 -6.576499,26.075749 25.712873,25.230222 8.6929516,-2.0073463 -6.0532047,26.319756 25.656255,24.657934 8.2313351,-1.6682478 -5.5282581,26.543099 25.581057,24.094743 7.7869819,-1.3178294 -5.0023792,26.745862 25.487719,23.541224 7.3601626,-0.9567621 -4.4762824,26.928155 25.376698,22.997935 6.9511246,-0.58572304 -3.9506757,27.090109 25.248469,22.465419 6.5600917,-0.20539496 -3.4262599,27.231881 25.103521,21.944198 6.1872645,0.18353467 -2.9037277,27.353646 24.942359,21.434778 5.8328196,0.5803744 -2.3837634,27.455606 24.765505,20.937644 5.4969102,0.98442957 -1.867042,27.537983 24.573492,20.453263 5.1796655,1.3950031 -1.3542284,27.60102 24.366868,19.982084 4.8811912,1.8113961 -0.84597701,27.644982 24.146195,19.524533 4.6015691,2.232909 -0.34293087,27.670156 23.912045,19.081019 4.3408572,2.6588419 0.15427894,27.676847 23.665003,18.651926 4.0990901,3.0884955 0.64503389,27.665382 23.405665,18.23762 3.8762785,3.5211719 1.1287286,27.636108 23.134636,17.838446 3.6724098,3.9561754 1.6047716,27.589388 22.852531,17.454727 3.487448,4.3928131 2.0725856,27.525608 22.559975,17.086762 3.3213337,4.8303956 2.5316084,27.445168 22.257598,16.73483 3.1739847,5.2682381 2.9812932,27.34849 21.946041,16.399188 3.0452957,5.7056607 3.4211093,27.236008 21.625948,16.080069 2.9351388,6.1419895 3.8505424,27.108178 21.297971,15.777685 2.8433639,6.5765568 4.2690953,26.965466 20.962767,15.492223 2.7697983,7.0087025 4.6762884,26.808359 20.620997,15.22385 2.7142478,7.4377742 5.07166,26.637356 20.273324,14.972708 2.6764965,7.8631284 5.4547668,26.452969 19.920417,14.738917 2.6563072,8.2841306 5.8251844,26.255727 19.562943,14.522572 2.6534216,8.7001565 6.1825075,26.046168 19.201575,14.323747 2.6675613,9.1105924 6.5263507,25.824845 18.836982,14.142492 2.6984273,9.5148359 6.8563482,25.592323 18.469837,13.978834 2.7457011,9.9122964 7.1721548,25.349175 18.100808,13.832778 2.8090446,10.302396 7.4734459,25.095987 17.730564,13.704303 2.888101,10.68457 7.7599178,24.833353 17.359772,13.593369 2.982495,11.058267 8.031288,24.561877 16.989093,13.49991 3.0918333,11.42295 8.2872955,24.282171 16.619186,13.423839 3.2157051,11.778099 8.5277009,23.994853 16.250707,13.365047 3.3536827,12.123205 8.7522869,23.700549 15.884303,13.323401 3.505322,12.457779 8.960858,23.399891 15.520617,13.298748 3.6701629,12.781346 9.1532413,23.093516 15.160286,13.290911 3.8477301,13.09345 9.3292859,22.782067 14.803937,13.299693 4.0375332,13.39365 9.4888638,22.466188 14.452191,13.324875 4.2390682,13.681525 9.6318692,22.146527 14.10566,13.366218 4.451817,13.956672 9.7582194,21.823737 13.764946,13.42346 4.6752488,14.218706 9.867854,21.49847 13.43064,13.496322 4.9088205,14.46726 9.9607356,21.171378 13.103323,13.584501 5.1519772,14.70199 10.036849,20.843116 12.783565,13.687678 5.404153,14.922568 10.096204,20.514336 12.471922,13.805513 5.6647718,15.128689 10.138828,20.18569 12.168941,13.937647 5.9332475,15.320067 10.164778,19.857827 11.875151,14.083703 6.2089851,15.496437 10.174126,19.531394 11.59107,14.243288 6.4913813,15.657557 10.166973,19.207035 11.317202,14.415987 6.7798253,15.803203 10.143439,18.885386 11.054034,14.601373 7.0736991,15.933174 10.103665,18.567084 10.802038,14.798999 7.3723786,16.047293 10.047816,18.252754 10.561671,15.008404 7.6752342,16.145402 9.976079,17.943019 10.333372,15.229112 7.9816317,16.227366 9.8886605,17.638493 10.117563,15.460629 8.2909324,16.293073 9.7857896,17.339783 9.9146505,15.702451 8.6024948,16.342432 9.667716,17.047486 9.7250203,15.954057 8.9156745,16.375375 9.5347101,16.762192 9.5490411,16.214914 9.2298252,16.391858 9.3870625,16.484478 9.3870625,-49.211334 -47.061128,-15.960809 10.078508,15.712209 8.3731236,-49.413814 -46.721049,-14.987154 10.742502,14.926478 7.3615532,-49.585871 -46.356032,-14.030977 11.378817,14.128191 6.3532441,-49.727771 -45.966758,-13.092911 11.987256,13.318254 5.3490768,-49.839805 -45.553924,-12.173566 12.56765,12.497578 4.3499187,-49.92229 -45.118243,-11.273526 13.119858,11.667072 3.3566235,-49.975566 -44.660442,-10.393352 13.643768,10.827646 2.3700303,-50 -44.181263,-9.5335783 14.139295,9.9802074 1.390963,-49.99598 -43.681457,-8.6947168 14.606384,9.1256645 0.42022968,-49.96392 -43.161791,-7.8772519 15.045006,8.2649213 -0.54137791,-49.904254 -42.62304,-7.0816432 15.45516,7.3988784 -1.4930853,-49.817439 -42.065991,-6.3083241 15.836874,6.5284322 -2.4341357,-49.703955 -41.491441,-5.5577018 16.190203,5.6544741 -3.3637906,-49.564301 -40.900194,-4.8301572 16.515228,4.7778893 -4.2813305,-49.398997 -40.293063,-4.1260448 16.812056,3.8995563 -5.1860551,-49.208583 -39.670867,-3.4456922 17.080824,3.0203462 -6.0772844,-48.993616 -39.034431,-2.7894002 17.321691,2.1411216 -6.9543584,-48.754675 -38.384588,-2.1574431 17.534845,1.262736 -7.8166386,-48.492352 -37.722172,-1.5500677 17.720497,0.38603293 -8.6635075,-48.207259 -37.048022,-0.9674943 17.878885,-0.48815444 -9.4943697,-47.900023 -36.36298,-0.40991585 18.010271,-1.3590045 -10.308652,-47.571287 -35.667889,0.12250155 18.114941,-2.2257075 -11.105804,-47.221709 -34.963596,0.62961878 18.193204,-3.0874668 -11.885298,-46.851959 -34.250943,1.1113237 18.245394,-3.9434987 -12.646629,-46.462722 -33.530778,1.5675308 18.271867,-4.7930341 -13.389319,-46.054694 -32.803941,1.9981815 18.273,-5.6353184 -14.11291,-45.628586 -32.071275,2.4032438 18.249194,-6.4696125 -14.81697,-45.185115 -31.333617,2.7827119 18.200869,-7.2951932 -15.501091,-44.725012 -30.591802,3.1366064 18.128468,-8.111354 -16.164892,-44.249015 -29.846658,3.464974 18.032452,-8.9174057 -16.808014,-43.757871 -29.099011,3.7678871 17.913302,-9.7126767 -17.430125,-43.252336 -28.349678,4.0454435 17.771518,-10.496514 -18.030917,-42.733171 -27.59947,4.2977666 17.607619,-11.268282 -18.610109,-42.201145 -26.84919,4.5250045 17.422141,-12.027368 -19.167445,-41.65703 -26.099634,4.7273301 17.215635,-12.773174 -19.702693,-41.101604 -25.351586,4.9049406 16.988671,-13.505127 -20.215649,-40.535648 -24.605823,5.0580571 16.741834,-14.222672 -20.706133,-39.959947 -23.86311,5.1869242 16.475722,-14.925276 -21.173993,-39.375287 -23.124201,5.2918097 16.19095,-15.612426 -21.6191,-38.782455 -22.389836,5.3730042 15.888143,-16.283635 -22.041352,-38.182239 -21.660746,5.4308205 15.567942,-16.938432 -22.440672,-37.575426 -20.937647,5.4655931 15.230998,-17.576375 -22.81701,-36.962804 -20.221239,5.477678 14.877975,-18.19704 -23.170339,-36.345155 -19.51221,5.4674521 14.509544,-18.800029 -23.500659,-35.723262 -18.811232,5.4353122 14.12639,-19.384966 -23.807995,-35.097903 -18.118962,5.3816752 13.729204,-19.951499 -24.092396,-34.469851 -17.436038,5.306977 13.318686,-20.4993 -24.353937,-33.839876 -16.763085,5.2116724 12.895544,-21.028065 -24.592714,-33.208739 -16.100706,5.096234 12.460492,-21.537514 -24.808853,-32.577197 -15.449491,4.9611518 12.01425,-22.027391 -25.002498,-31.945999 -14.810008,4.8069328 11.557543,-22.497465 -25.17382,-31.315886 -14.182806,4.6341001 11.091101,-22.94753 -25.323013,-30.687589 -13.568418,4.4431922 10.615657,-23.377403 -25.450292,-30.061832 -12.967353,4.2347629 10.131945,-23.786927 -25.555898,-29.439326 -12.380102,4.0093796 9.6407048,-24.175968 -25.64009,-28.820773 -11.807136,3.7676239 9.1426737,-24.54442 -25.703152,-28.206864 -11.248904,3.5100896 8.6385913,-24.892197 -25.745388,-27.598275 -10.705833,3.2373833 8.1291961,-25.219241 -25.767123,-26.995672 -10.178329,2.9501224 7.6152258,-25.525517 -25.768702,-26.399706 -9.6667765,2.6489355 7.0974158,-25.811016 -25.75049,-25.811016 -9.1715377,2.3344609 6.576499,-26.075749 -25.712873,-25.230222 -8.6929516,2.0073463 6.0532047,-26.319756 -25.656255,-24.657934 -8.2313351,1.6682478 5.5282581,-26.543099 -25.581057,-24.094743 -7.7869819,1.3178294 5.0023792,-26.745862 -25.487719,-23.541224 -7.3601626,0.9567621 4.4762824,-26.928155 -25.376698,-22.997935 -6.9511246,0.58572304 3.9506757,-27.090109 -25.248469,-22.465419 -6.5600917,0.20539496 3.4262599,-27.231881 -25.103521,-21.944198 -6.1872645,-0.18353467 2.9037277,-27.353646 -24.942359,-21.434778 -5.8328196,-0.5803744 2.3837634,-27.455606 -24.765505,-20.937644 -5.4969102,-0.98442957 1.867042,-27.537983 -24.573492,-20.453263 -5.1796655,-1.3950031 1.3542284,-27.60102 -24.366868,-19.982084 -4.8811912,-1.8113961 0.84597701,-27.644982 -24.146195,-19.524533 -4.6015691,-2.232909 0.34293087,-27.670156 -23.912045,-19.081019 -4.3408572,-2.6588419 -0.15427894,-27.676847 -23.665003,-18.651926 -4.0990901,-3.0884955 -0.64503389,-27.665382 -23.405665,-18.23762 -3.8762785,-3.5211719 -1.1287286,-27.636108 -23.134636,-17.838446 -3.6724098,-3.9561754 -1.6047716,-27.589388 -22.852531,-17.454727 -3.487448,-4.3928131 -2.0725856,-27.525608 -22.559975,-17.086762 -3.3213337,-4.8303956 -2.5316084,-27.445168 -22.257598,-16.73483 -3.1739847,-5.2682381 -2.9812932,-27.34849 -21.946041,-16.399188 -3.0452957,-5.7056607 -3.4211093,-27.236008 -21.625948,-16.080069 -2.9351388,-6.1419895 -3.8505424,-27.108178 -21.297971,-15.777685 -2.8433639,-6.5765568 -4.2690953,-26.965466 -20.962767,-15.492223 -2.7697983,-7.0087025 -4.6762884,-26.808359 -20.620997,-15.22385 -2.7142478,-7.4377742 -5.07166,-26.637356 -20.273324,-14.972708 -2.6764965,-7.8631284 -5.4547668,-26.452969 -19.920417,-14.738917 -2.6563072,-8.2841306 -5.8251844,-26.255727 -19.562943,-14.522572 -2.6534216,-8.7001565 -6.1825075,-26.046168 -19.201575,-14.323747 -2.6675613,-9.1105924 -6.5263507,-25.824845 -18.836982,-14.142492 -2.6984273,-9.5148359 -6.8563482,-25.592323 -18.469837,-13.978834 -2.7457011,-9.9122964 -7.1721548,-25.349175 -18.100808,-13.832778 -2.8090446,-10.302396 -7.4734459,-25.095987 -17.730564,-13.704303 -2.888101,-10.68457 -7.7599178,-24.833353 -17.359772,-13.593369 -2.982495,-11.058267 -8.031288,-24.561877 -16.989093,-13.49991 -3.0918333,-11.42295 -8.2872955,-24.282171 -16.619186,-13.423839 -3.2157051,-11.778099 -8.5277009,-23.994853 -16.250707,-13.365047 -3.3536827,-12.123205 -8.7522869,-23.700549 -15.884303,-13.323401 -3.505322,-12.457779 -8.960858,-23.399891 -15.520617,-13.298748 -3.6701629,-12.781346 -9.1532413,-23.093516 -15.160286,-13.290911 -3.8477301,-13.09345 -9.3292859,-22.782067 -14.803937,-13.299693 -4.0375332,-13.39365 -9.4888638,-22.466188 -14.452191,-13.324875 -4.2390682,-13.681525 -9.6318692,-22.146527 -14.10566,-13.366218 -4.451817,-13.956672 -9.7582194,-21.823737 -13.764946,-13.42346 -4.6752488,-14.218706 -9.867854,-21.49847 -13.43064,-13.496322 -4.9088205,-14.46726 -9.9607356,-21.171378 -13.103323,-13.584501 -5.1519772,-14.70199 -10.036849,-20.843116 -12.783565,-13.687678 -5.404153,-14.922568 -10.096204,-20.514336 -12.471922,-13.805513 -5.6647718,-15.128689 -10.138828,-20.18569 -12.168941,-13.937647 -5.9332475,-15.320067 -10.164778,-19.857827 -11.875151,-14.083703 -6.2089851,-15.496437 -10.174126,-19.531394 -11.59107,-14.243288 -6.4913813,-15.657557 -10.166973,-19.207035 -11.317202,-14.415987 -6.7798253,-15.803203 -10.143439,-18.885386 -11.054034,-14.601373 -7.0736991,-15.933174 -10.103665,-18.567084 -10.802038,-14.798999 -7.3723786,-16.047293 -10.047816,-18.252754 -10.561671,-15.008404 -7.6752342,-16.145402 -9.976079,-17.943019 -10.333372,-15.229112 -7.9816317,-16.227366 -9.8886605,-17.638493 -10.117563,-15.460629 -8.2909324,-16.293073 -9.7857896,-17.339783 -9.9146505,-15.702451 -8.6024948,-16.342432 -9.667716,-17.047486 -9.7250203,-15.954057 -8.9156745,-16.375375 -9.5347101,-16.762192 -9.5490411,-16.214914 -9.2298252,-16.391858 -9.3870625,-16.484478 -9.3870625,49.211334 47.061128,15.960809 -10.078508,-15.712209 -8.3731236,49.413814 46.721049,14.987154 -10.742502,-14.926478 -7.3615532,49.585871 46.356032,14.030977 -11.378817,-14.128191 -6.3532441,49.727771 45.966758,13.092911 -11.987256,-13.318254 -5.3490768,49.839805 45.553924,12.173566 -12.56765,-12.497578 -4.3499187,49.92229 45.118243,11.273526 -13.119858,-11.667072 -3.3566235,49.975566 44.660442,10.393352 "
     fill="none"
     stroke="blue"
     stroke-width="0.1"
     stroke-linecap="round"
     stroke-linejoin="round"
     id="polygon1-8-3"
     style="fill:none;fill-opacity:1;fill-rule:evenodd;stroke:#000000;stroke-width:2;stroke-dasharray:none;stroke-opacity:1"
     transform="matrix(-0.91257961,-0.51722034,0.51722034,-0.91257961,-0.00267203,-0.02383337)" />
  <polygon
     points="-7.3615532,49.585871 46.356032,14.030977 -11.378817,-14.128191 -6.3532441,49.727771 45.966758,13.092911 -11.987256,-13.318254 -5.3490768,49.839805 45.553924,12.173566 -12.56765,-12.497578 -4.3499187,49.92229 45.118243,11.273526 -13.119858,-11.667072 -3.3566235,49.975566 44.660442,10.393352 -13.643768,-10.827646 -2.3700303,50 44.181263,9.5335783 -14.139295,-9.9802074 -1.390963,49.99598 43.681457,8.6947168 -14.606384,-9.1256645 -0.42022968,49.96392 43.161791,7.8772519 -15.045006,-8.2649213 0.54137791,49.904254 42.62304,7.0816432 -15.45516,-7.3988784 1.4930853,49.817439 42.065991,6.3083241 -15.836874,-6.5284322 2.4341357,49.703955 41.491441,5.5577018 -16.190203,-5.6544741 3.3637906,49.564301 40.900194,4.8301572 -16.515228,-4.7778893 4.2813305,49.398997 40.293063,4.1260448 -16.812056,-3.8995563 5.1860551,49.208583 39.670867,3.4456922 -17.080824,-3.0203462 6.0772844,48.993616 39.034431,2.7894002 -17.321691,-2.1411216 6.9543584,48.754675 38.384588,2.1574431 -17.534845,-1.262736 7.8166386,48.492352 37.722172,1.5500677 -17.720497,-0.38603293 8.6635075,48.207259 37.048022,0.9674943 -17.878885,0.48815444 9.4943697,47.900023 36.36298,0.40991585 -18.010271,1.3590045 10.308652,47.571287 35.667889,-0.12250155 -18.114941,2.2257075 11.105804,47.221709 34.963596,-0.62961878 -18.193204,3.0874668 11.885298,46.851959 34.250943,-1.1113237 -18.245394,3.9434987 12.646629,46.462722 33.530778,-1.5675308 -18.271867,4.7930341 13.389319,46.054694 32.803941,-1.9981815 -18.273,5.6353184 14.11291,45.628586 32.071275,-2.4032438 -18.249194,6.4696125 14.81697,45.185115 31.333617,-2.7827119 -18.200869,7.2951932 15.501091,44.725012 30.591802,-3.1366064 -18.128468,8.111354 16.164892,44.249015 29.846658,-3.464974 -18.032452,8.9174057 16.808014,43.757871 29.099011,-3.7678871 -17.913302,9.7126767 17.430125,43.252336 28.349678,-4.0454435 -17.771518,10.496514 18.030917,42.733171 27.59947,-4.2977666 -17.607619,11.268282 18.610109,42.201145 26.84919,-4.5250045 -17.422141,12.027368 19.167445,41.65703 26.099634,-4.7273301 -17.215635,12.773174 19.702693,41.101604 25.351586,-4.9049406 -16.988671,13.505127 20.215649,40.535648 24.605823,-5.0580571 -16.741834,14.222672 20.706133,39.959947 23.86311,-5.1869242 -16.475722,14.925276 21.173993,39.375287 23.124201,-5.2918097 -16.19095,15.612426 21.6191,38.782455 22.389836,-5.3730042 -15.888143,16.283635 22.041352,38.182239 21.660746,-5.4308205 -15.567942,16.938432 22.440672,37.575426 20.937647,-5.4655931 -15.230998,17.576375 22.81701,36.962804 20.221239,-5.477678 -14.877975,18.19704 23.170339,36.345155 19.51221,-5.4674521 -14.509544,18.800029 23.500659,35.723262 18.811232,-5.4353122 -14.12639,19.384966 23.807995,35.097903 18.118962,-5.3816752 -13.729204,19.951499 24.092396,34.469851 17.436038,-5.306977 -13.318686,20.4993 24.353937,33.839876 16.763085,-5.2116724 -12.895544,21.028065 24.592714,33.208739 16.100706,-5.096234 -12.460492,21.537514 24.808853,32.577197 15.449491,-4.9611518 -12.01425,22.027391 25.002498,31.945999 14.810008,-4.8069328 -11.557543,22.497465 25.17382,31.315886 14.182806,-4.6341001 -11.091101,22.94753 25.323013,30.687589 13.568418,-4.4431922 -10.615657,23.377403 25.450292,30.061832 12.967353,-4.2347629 -10.131945,23.786927 25.555898,29.439326 12.380102,-4.0093796 -9.6407048,24.175968 25.64009,28.820773 11.807136,-3.7676239 -9.1426737,24.54442 25.703152,28.206864 11.248904,-3.5100896 -8.6385913,24.892197 25.745388,27.598275 10.705833,-3.2373833 -8.1291961,25.219241 25.767123,26.995672 10.178329,-2.9501224 -7.6152258,25.525517 25.768702,26.399706 9.6667765,-2.6489355 -7.0974158,25.811016 25.75049,25.811016 9.1715377,-2.3344609 -6.576499,26.075749 25.712873,25.230222 8.6929516,-2.0073463 -6.0532047,26.319756 25.656255,24.657934 8.2313351,-1.6682478 -5.5282581,26.543099 25.581057,24.094743 7.7869819,-1.3178294 -5.0023792,26.745862 25.487719,23.541224 7.3601626,-0.9567621 -4.4762824,26.928155 25.376698,22.997935 6.9511246,-0.58572304 -3.9506757,27.090109 25.248469,22.465419 6.5600917,-0.20539496 -3.4262599,27.231881 25.103521,21.944198 6.1872645,0.18353467 -2.9037277,27.353646 24.942359,21.434778 5.8328196,0.5803744 -2.3837634,27.455606 24.765505,20.937644 5.4969102,0.98442957 -1.867042,27.537983 24.573492,20.453263 5.1796655,1.3950031 -1.3542284,27.60102 24.366868,19.982084 4.8811912,1.8113961 -0.84597701,27.644982 24.146195,19.524533 4.6015691,2.232909 -0.34293087,27.670156 23.912045,19.081019 4.3408572,2.6588419 0.15427894,27.676847 23.665003,18.651926 4.0990901,3.0884955 0.64503389,27.665382 23.405665,18.23762 3.8762785,3.5211719 1.1287286,27.636108 23.134636,17.838446 3.6724098,3.9561754 1.6047716,27.589388 22.852531,17.454727 3.487448,4.3928131 2.0725856,27.525608 22.559975,17.086762 3.3213337,4.8303956 2.5316084,27.445168 22.257598,16.73483 3.1739847,5.2682381 2.9812932,27.34849 21.946041,16.399188 3.0452957,5.7056607 3.4211093,27.236008 21.625948,16.080069 2.9351388,6.1419895 3.8505424,27.108178 21.297971,15.777685 2.8433639,6.5765568 4.2690953,26.965466 20.962767,15.492223 2.7697983,7.0087025 4.6762884,26.808359 20.620997,15.22385 2.7142478,7.4377742 5.07166,26.637356 20.273324,14.972708 2.6764965,7.8631284 5.4547668,26.452969 19.920417,14.738917 2.6563072,8.2841306 5.8251844,26.255727 19.562943,14.522572 2.6534216,8.7001565 6.1825075,26.046168 19.201575,14.323747 2.6675613,9.1105924 6.5263507,25.824845 18.836982,14.142492 2.6984273,9.5148359 6.8563482,25.592323 18.469837,13.978834 2.7457011,9.9122964 7.1721548,25.349175 18.100808,13.832778 2.8090446,10.302396 7.4734459,25.095987 17.730564,13.704303 2.888101,10.68457 7.7599178,24.833353 17.359772,13.593369 2.982495,11.058267 8.031288,24.561877 16.989093,13.49991 3.0918333,11.42295 8.2872955,24.282171 16.619186,13.423839 3.2157051,11.778099 8.5277009,23.994853 16.250707,13.365047 3.3536827,12.123205 8.7522869,23.700549 15.884303,13.323401 3.505322,12.457779 8.960858,23.399891 15.520617,13.298748 3.6701629,12.781346 9.1532413,23.093516 15.160286,13.290911 3.8477301,13.09345 9.3292859,22.782067 14.803937,13.299693 4.0375332,13.39365 9.4888638,22.466188 14.452191,13.324875 4.2390682,13.681525 9.6318692,22.146527 14.10566,13.366218 4.451817,13.956672 9.7582194,21.823737 13.764946,13.42346 4.6752488,14.218706 9.867854,21.49847 13.43064,13.496322 4.9088205,14.46726 9.9607356,21.171378 13.103323,13.584501 5.1519772,14.70199 10.036849,20.843116 12.783565,13.687678 5.404153,14.922568 10.096204,20.514336 12.471922,13.805513 5.6647718,15.128689 10.138828,20.18569 12.168941,13.937647 5.9332475,15.320067 10.164778,19.857827 11.875151,14.083703 6.2089851,15.496437 10.174126,19.531394 11.59107,14.243288 6.4913813,15.657557 10.166973,19.207035 11.317202,14.415987 6.7798253,15.803203 10.143439,18.885386 11.054034,14.601373 7.0736991,15.933174 10.103665,18.567084 10.802038,14.798999 7.3723786,16.047293 10.047816,18.252754 10.561671,15.008404 7.6752342,16.145402 9.976079,17.943019 10.333372,15.229112 7.9816317,16.227366 9.8886605,17.638493 10.117563,15.460629 8.2909324,16.293073 9.7857896,17.339783 9.9146505,15.702451 8.6024948,16.342432 9.667716,17.047486 9.7250203,15.954057 8.9156745,16.375375 9.5347101,16.762192 9.5490411,16.214914 9.2298252,16.391858 9.3870625,16.484478 9.3870625,-49.211334 -47.061128,-15.960809 10.078508,15.712209 8.3731236,-49.413814 -46.721049,-14.987154 10.742502,14.926478 7.3615532,-49.585871 -46.356032,-14.030977 11.378817,14.128191 6.3532441,-49.727771 -45.966758,-13.092911 11.987256,13.318254 5.3490768,-49.839805 -45.553924,-12.173566 12.56765,12.497578 4.3499187,-49.92229 -45.118243,-11.273526 13.119858,11.667072 3.3566235,-49.975566 -44.660442,-10.393352 13.643768,10.827646 2.3700303,-50 -44.181263,-9.5335783 14.139295,9.9802074 1.390963,-49.99598 -43.681457,-8.6947168 14.606384,9.1256645 0.42022968,-49.96392 -43.161791,-7.8772519 15.045006,8.2649213 -0.54137791,-49.904254 -42.62304,-7.0816432 15.45516,7.3988784 -1.4930853,-49.817439 -42.065991,-6.3083241 15.836874,6.5284322 -2.4341357,-49.703955 -41.491441,-5.5577018 16.190203,5.6544741 -3.3637906,-49.564301 -40.900194,-4.8301572 16.515228,4.7778893 -4.2813305,-49.398997 -40.293063,-4.1260448 16.812056,3.8995563 -5.1860551,-49.208583 -39.670867,-3.4456922 17.080824,3.0203462 -6.0772844,-48.993616 -39.034431,-2.7894002 17.321691,2.1411216 -6.9543584,-48.754675 -38.384588,-2.1574431 17.534845,1.262736 -7.8166386,-48.492352 -37.722172,-1.5500677 17.720497,0.38603293 -8.6635075,-48.207259 -37.048022,-0.9674943 17.878885,-0.48815444 -9.4943697,-47.900023 -36.36298,-0.40991585 18.010271,-1.3590045 -10.308652,-47.571287 -35.667889,0.12250155 18.114941,-2.2257075 -11.105804,-47.221709 -34.963596,0.62961878 18.193204,-3.0874668 -11.885298,-46.851959 -34.250943,1.1113237 18.245394,-3.9434987 -12.646629,-46.462722 -33.530778,1.5675308 18.271867,-4.7930341 -13.389319,-46.054694 -32.803941,1.9981815 18.273,-5.6353184 -14.11291,-45.628586 -32.071275,2.4032438 18.249194,-6.4696125 -14.81697,-45.185115 -31.333617,2.7827119 18.200869,-7.2951932 -15.501091,-44.725012 -30.591802,3.1366064 18.128468,-8.111354 -16.164892,-44.249015 -29.846658,3.464974 18.032452,-8.9174057 -16.808014,-43.757871 -29.099011,3.7678871 17.913302,-9.7126767 -17.430125,-43.252336 -28.349678,4.0454435 17.771518,-10.496514 -18.030917,-42.733171 -27.59947,4.2977666 17.607619,-11.268282 -18.610109,-42.201145 -26.84919,4.5250045 17.422141,-12.027368 -19.167445,-41.65703 -26.099634,4.7273301 17.215635,-12.773174 -19.702693,-41.101604 -25.351586,4.9049406 16.988671,-13.505127 -20.215649,-40.535648 -24.605823,5.0580571 16.741834,-14.222672 -20.706133,-39.959947 -23.86311,5.1869242 16.475722,-14.925276 -21.173993,-39.375287 -23.124201,5.2918097 16.19095,-15.612426 -21.6191,-38.782455 -22.389836,5.3730042 15.888143,-16.283635 -22.041352,-38.182239 -21.660746,5.4308205 15.567942,-16.938432 -22.440672,-37.575426 -20.937647,5.4655931 15.230998,-17.576375 -22.81701,-36.962804 -20.221239,5.477678 14.877975,-18.19704 -23.170339,-36.345155 -19.51221,5.4674521 14.509544,-18.800029 -23.500659,-35.723262 -18.811232,5.4353122 14.12639,-19.384966 -23.807995,-35.097903 -18.118962,5.3816752 13.729204,-19.951499 -24.092396,-34.469851 -17.436038,5.306977 13.318686,-20.4993 -24.353937,-33.839876 -16.763085,5.2116724 12.895544,-21.028065 -24.592714,-33.208739 -16.100706,5.096234 12.460492,-21.537514 -24.808853,-32.577197 -15.449491,4.9611518 12.01425,-22.027391 -25.002498,-31.945999 -14.810008,4.8069328 11.557543,-22.497465 -25.17382,-31.315886 -14.182806,4.6341001 11.091101,-22.94753 -25.323013,-30.687589 -13.568418,4.4431922 10.615657,-23.377403 -25.450292,-30.061832 -12.967353,4.2347629 10.131945,-23.786927 -25.555898,-29.439326 -12.380102,4.0093796 9.6407048,-24.175968 -25.64009,-28.820773 -11.807136,3.7676239 9.1426737,-24.54442 -25.703152,-28.206864 -11.248904,3.5100896 8.6385913,-24.892197 -25.745388,-27.598275 -10.705833,3.2373833 8.1291961,-25.219241 -25.767123,-26.995672 -10.178329,2.9501224 7.6152258,-25.525517 -25.768702,-26.399706 -9.6667765,2.6489355 7.0974158,-25.811016 -25.75049,-25.811016 -9.1715377,2.3344609 6.576499,-26.075749 -25.712873,-25.230222 -8.6929516,2.0073463 6.0532047,-26.319756 -25.656255,-24.657934 -8.2313351,1.6682478 5.5282581,-26.543099 -25.581057,-24.094743 -7.7869819,1.3178294 5.0023792,-26.745862 -25.487719,-23.541224 -7.3601626,0.9567621 4.4762824,-26.928155 -25.376698,-22.997935 -6.9511246,0.58572304 3.9506757,-27.090109 -25.248469,-22.465419 -6.5600917,0.20539496 3.4262599,-27.231881 -25.103521,-21.944198 -6.1872645,-0.18353467 2.9037277,-27.353646 -24.942359,-21.434778 -5.8328196,-0.5803744 2.3837634,-27.455606 -24.765505,-20.937644 -5.4969102,-0.98442957 1.867042,-27.537983 -24.573492,-20.453263 -5.1796655,-1.3950031 1.3542284,-27.60102 -24.366868,-19.982084 -4.8811912,-1.8113961 0.84597701,-27.644982 -24.146195,-19.524533 -4.6015691,-2.232909 0.34293087,-27.670156 -23.912045,-19.081019 -4.3408572,-2.6588419 -0.15427894,-27.676847 -23.665003,-18.651926 -4.0990901,-3.0884955 -0.64503389,-27.665382 -23.405665,-18.23762 -3.8762785,-3.5211719 -1.1287286,-27.636108 -23.134636,-17.838446 -3.6724098,-3.9561754 -1.6047716,-27.589388 -22.852531,-17.454727 -3.487448,-4.3928131 -2.0725856,-27.525608 -22.559975,-17.086762 -3.3213337,-4.8303956 -2.5316084,-27.445168 -22.257598,-16.73483 -3.1739847,-5.2682381 -2.9812932,-27.34849 -21.946041,-16.399188 -3.0452957,-5.7056607 -3.4211093,-27.236008 -21.625948,-16.080069 -2.9351388,-6.1419895 -3.8505424,-27.108178 -21.297971,-15.777685 -2.8433639,-6.5765568 -4.2690953,-26.965466 -20.962767,-15.492223 -2.7697983,-7.0087025 -4.6762884,-26.808359 -20.620997,-15.22385 -2.7142478,-7.4377742 -5.07166,-26.637356 -20.273324,-14.972708 -2.6764965,-7.8631284 -5.4547668,-26.452969 -19.920417,-14.738917 -2.6563072,-8.2841306 -5.8251844,-26.255727 -19.562943,-14.522572 -2.6534216,-8.7001565 -6.1825075,-26.046168 -19.201575,-14.323747 -2.6675613,-9.1105924 -6.5263507,-25.824845 -18.836982,-14.142492 -2.6984273,-9.5148359 -6.8563482,-25.592323 -18.469837,-13.978834 -2.7457011,-9.9122964 -7.1721548,-25.349175 -18.100808,-13.832778 -2.8090446,-10.302396 -7.4734459,-25.095987 -17.730564,-13.704303 -2.888101,-10.68457 -7.7599178,-24.833353 -17.359772,-13.593369 -2.982495,-11.058267 -8.031288,-24.561877 -16.989093,-13.49991 -3.0918333,-11.42295 -8.2872955,-24.282171 -16.619186,-13.423839 -3.2157051,-11.778099 -8.5277009,-23.994853 -16.250707,-13.365047 -3.3536827,-12.123205 -8.7522869,-23.700549 -15.884303,-13.323401 -3.505322,-12.457779 -8.960858,-23.399891 -15.520617,-13.298748 -3.6701629,-12.781346 -9.1532413,-23.093516 -15.160286,-13.290911 -3.8477301,-13.09345 -9.3292859,-22.782067 -14.803937,-13.299693 -4.0375332,-13.39365 -9.4888638,-22.466188 -14.452191,-13.324875 -4.2390682,-13.681525 -9.6318692,-22.146527 -14.10566,-13.366218 -4.451817,-13.956672 -9.7582194,-21.823737 -13.764946,-13.42346 -4.6752488,-14.218706 -9.867854,-21.49847 -13.43064,-13.496322 -4.9088205,-14.46726 -9.9607356,-21.171378 -13.103323,-13.584501 -5.1519772,-14.70199 -10.036849,-20.843116 -12.783565,-13.687678 -5.404153,-14.922568 -10.096204,-20.514336 -12.471922,-13.805513 -5.6647718,-15.128689 -10.138828,-20.18569 -12.168941,-13.937647 -5.9332475,-15.320067 -10.164778,-19.857827 -11.875151,-14.083703 -6.2089851,-15.496437 -10.174126,-19.531394 -11.59107,-14.243288 -6.4913813,-15.657557 -10.166973,-19.207035 -11.317202,-14.415987 -6.7798253,-15.803203 -10.143439,-18.885386 -11.054034,-14.601373 -7.0736991,-15.933174 -10.103665,-18.567084 -10.802038,-14.798999 -7.3723786,-16.047293 -10.047816,-18.252754 -10.561671,-15.008404 -7.6752342,-16.145402 -9.976079,-17.943019 -10.333372,-15.229112 -7.9816317,-16.227366 -9.8886605,-17.638493 -10.117563,-15.460629 -8.2909324,-16.293073 -9.7857896,-17.339783 -9.9146505,-15.702451 -8.6024948,-16.342432 -9.667716,-17.047486 -9.7250203,-15.954057 -8.9156745,-16.375375 -9.5347101,-16.762192 -9.5490411,-16.214914 -9.2298252,-16.391858 -9.3870625,-16.484478 -9.3870625,49.211334 47.061128,15.960809 -10.078508,-15.712209 -8.3731236,49.413814 46.721049,14.987154 -10.742502,-14.926478 "
     fill="none"
     stroke="blue"
     stroke-width="0.1"
     stroke-linecap="round"
     stroke-linejoin="round"
     id="polygon1"
     style="fill:none;fill-opacity:1;fill-rule:evenodd;stroke:#a6aaff;stroke-width:0.38132985;stroke-dasharray:none;stroke-opacity:1"
     transform="matrix(-0.91257961,-0.51722034,0.51722034,-0.91257961,-0.00267203,-0.02383337)" />
  <polygon
     points="45.553924,12.173566 -12.56765,-12.497578 -4.3499187,49.92229 45.118243,11.273526 -13.119858,-11.667072 -3.3566235,49.975566 44.660442,10.393352 -13.643768,-10.827646 -2.3700303,50 44.181263,9.5335783 -14.139295,-9.9802074 -1.390963,49.99598 43.681457,8.6947168 -14.606384,-9.1256645 -0.42022968,49.96392 43.161791,7.8772519 -15.045006,-8.2649213 0.54137791,49.904254 42.62304,7.0816432 -15.45516,-7.3988784 1.4930853,49.817439 42.065991,6.3083241 -15.836874,-6.5284322 2.4341357,49.703955 41.491441,5.5577018 -16.190203,-5.6544741 3.3637906,49.564301 40.900194,4.8301572 -16.515228,-4.7778893 4.2813305,49.398997 40.293063,4.1260448 -16.812056,-3.8995563 5.1860551,49.208583 39.670867,3.4456922 -17.080824,-3.0203462 6.0772844,48.993616 39.034431,2.7894002 -17.321691,-2.1411216 6.9543584,48.754675 38.384588,2.1574431 -17.534845,-1.262736 7.8166386,48.492352 37.722172,1.5500677 -17.720497,-0.38603293 8.6635075,48.207259 37.048022,0.9674943 -17.878885,0.48815444 9.4943697,47.900023 36.36298,0.40991585 -18.010271,1.3590045 10.308652,47.571287 35.667889,-0.12250155 -18.114941,2.2257075 11.105804,47.221709 34.963596,-0.62961878 -18.193204,3.0874668 11.885298,46.851959 34.250943,-1.1113237 -18.245394,3.9434987 12.646629,46.462722 33.530778,-1.5675308 -18.271867,4.7930341 13.389319,46.054694 32.803941,-1.9981815 -18.273,5.6353184 14.11291,45.628586 32.071275,-2.4032438 -18.249194,6.4696125 14.81697,45.185115 31.333617,-2.7827119 -18.200869,7.2951932 15.501091,44.725012 30.591802,-3.1366064 -18.128468,8.111354 16.164892,44.249015 29.846658,-3.464974 -18.032452,8.9174057 16.808014,43.757871 29.099011,-3.7678871 -17.913302,9.7126767 17.430125,43.252336 28.349678,-4.0454435 -17.771518,10.496514 18.030917,42.733171 27.59947,-4.2977666 -17.607619,11.268282 18.610109,42.201145 26.84919,-4.5250045 -17.422141,12.027368 19.167445,41.65703 26.099634,-4.7273301 -17.215635,12.773174 19.702693,41.101604 25.351586,-4.9049406 -16.988671,13.505127 20.215649,40.535648 24.605823,-5.0580571 -16.741834,14.222672 20.706133,39.959947 23.86311,-5.1869242 -16.475722,14.925276 21.173993,39.375287 23.124201,-5.2918097 -16.19095,15.612426 21.6191,38.782455 22.389836,-5.3730042 -15.888143,16.283635 22.041352,38.182239 21.660746,-5.4308205 -15.567942,16.938432 22.440672,37.575426 20.937647,-5.4655931 -15.230998,17.576375 22.81701,36.962804 20.221239,-5.477678 -14.877975,18.19704 23.170339,36.345155 19.51221,-5.4674521 -14.509544,18.800029 23.500659,35.723262 18.811232,-5.4353122 -14.12639,19.384966 23.807995,35.097903 18.118962,-5.3816752 -13.729204,19.951499 24.092396,34.469851 17.436038,-5.306977 -13.318686,20.4993 24.353937,33.839876 16.763085,-5.2116724 -12.895544,21.028065 24.592714,33.208739 16.100706,-5.096234 -12.460492,21.537514 24.808853,32.577197 15.449491,-4.9611518 -12.01425,22.027391 25.002498,31.945999 14.810008,-4.8069328 -11.557543,22.497465 25.17382,31.315886 14.182806,-4.6341001 -11.091101,22.94753 25.323013,30.687589 13.568418,-4.4431922 -10.615657,23.377403 25.450292,30.061832 12.967353,-4.2347629 -10.131945,23.786927 25.555898,29.439326 12.380102,-4.0093796 -9.6407048,24.175968 25.64009,28.820773 11.807136,-3.7676239 -9.1426737,24.54442 25.703152,28.206864 11.248904,-3.5100896 -8.6385913,24.892197 25.745388,27.598275 10.705833,-3.2373833 -8.1291961,25.219241 25.767123,26.995672 10.178329,-2.9501224 -7.6152258,25.525517 25.768702,26.399706 9.6667765,-2.6489355 -7.0974158,25.811016 25.75049,25.811016 9.1715377,-2.3344609 -6.576499,26.075749 25.712873,25.230222 8.6929516,-2.0073463 -6.0532047,26.319756 25.656255,24.657934 8.2313351,-1.6682478 -5.5282581,26.543099 25.581057,24.094743 7.7869819,-1.3178294 -5.0023792,26.745862 25.487719,23.541224 7.3601626,-0.9567621 -4.4762824,26.928155 25.376698,22.997935 6.9511246,-0.58572304 -3.9506757,27.090109 25.248469,22.465419 6.5600917,-0.20539496 -3.4262599,27.231881 25.103521,21.944198 6.1872645,0.18353467 -2.9037277,27.353646 24.942359,21.434778 5.8328196,0.5803744 -2.3837634,27.455606 24.765505,20.937644 5.4969102,0.98442957 -1.867042,27.537983 24.573492,20.453263 5.1796655,1.3950031 -1.3542284,27.60102 24.366868,19.982084 4.8811912,1.8113961 -0.84597701,27.644982 24.146195,19.524533 4.6015691,2.232909 -0.34293087,27.670156 23.912045,19.081019 4.3408572,2.6588419 0.15427894,27.676847 23.665003,18.651926 4.0990901,3.0884955 0.64503389,27.665382 23.405665,18.23762 3.8762785,3.5211719 1.1287286,27.636108 23.134636,17.838446 3.6724098,3.9561754 1.6047716,27.589388 22.852531,17.454727 3.487448,4.3928131 2.0725856,27.525608 22.559975,17.086762 3.3213337,4.8303956 2.5316084,27.445168 22.257598,16.73483 3.1739847,5.2682381 2.9812932,27.34849 21.946041,16.399188 3.0452957,5.7056607 3.4211093,27.236008 21.625948,16.080069 2.9351388,6.1419895 3.8505424,27.108178 21.297971,15.777685 2.8433639,6.5765568 4.2690953,26.965466 20.962767,15.492223 2.7697983,7.0087025 4.6762884,26.808359 20.620997,15.22385 2.7142478,7.4377742 5.07166,26.637356 20.273324,14.972708 2.6764965,7.8631284 5.4547668,26.452969 19.920417,14.738917 2.6563072,8.2841306 5.8251844,26.255727 19.562943,14.522572 2.6534216,8.7001565 6.1825075,26.046168 19.201575,14.323747 2.6675613,9.1105924 6.5263507,25.824845 18.836982,14.142492 2.6984273,9.5148359 6.8563482,25.592323 18.469837,13.978834 2.7457011,9.9122964 7.1721548,25.349175 18.100808,13.832778 2.8090446,10.302396 7.4734459,25.095987 17.730564,13.704303 2.888101,10.68457 7.7599178,24.833353 17.359772,13.593369 2.982495,11.058267 8.031288,24.561877 16.989093,13.49991 3.0918333,11.42295 8.2872955,24.282171 16.619186,13.423839 3.2157051,11.778099 8.5277009,23.994853 16.250707,13.365047 3.3536827,12.123205 8.7522869,23.700549 15.884303,13.323401 3.505322,12.457779 8.960858,23.399891 15.520617,13.298748 3.6701629,12.781346 9.1532413,23.093516 15.160286,13.290911 3.8477301,13.09345 9.3292859,22.782067 14.803937,13.299693 4.0375332,13.39365 9.4888638,22.466188 14.452191,13.324875 4.2390682,13.681525 9.6318692,22.146527 14.10566,13.366218 4.451817,13.956672 9.7582194,21.823737 13.764946,13.42346 4.6752488,14.218706 9.867854,21.49847 13.43064,13.496322 4.9088205,14.46726 9.9607356,21.171378 13.103323,13.584501 5.1519772,14.70199 10.036849,20.843116 12.783565,13.687678 5.404153,14.922568 10.096204,20.514336 12.471922,13.805513 5.6647718,15.128689 10.138828,20.18569 12.168941,13.937647 5.9332475,15.320067 10.164778,19.857827 11.875151,14.083703 6.2089851,15.496437 10.174126,19.531394 11.59107,14.243288 6.4913813,15.657557 10.166973,19.207035 11.317202,14.415987 6.7798253,15.803203 10.143439,18.885386 11.054034,14.601373 7.0736991,15.933174 10.103665,18.567084 10.802038,14.798999 7.3723786,16.047293 10.047816,18.252754 10.561671,15.008404 7.6752342,16.145402 9.976079,17.943019 10.333372,15.229112 7.9816317,16.227366 9.8886605,17.638493 10.117563,15.460629 8.2909324,16.293073 9.7857896,17.339783 9.9146505,15.702451 8.6024948,16.342432 9.667716,17.047486 9.7250203,15.954057 8.9156745,16.375375 9.5347101,16.762192 9.5490411,16.214914 9.2298252,16.391858 9.3870625,16.484478 9.3870625,-49.211334 -47.061128,-15.960809 10.078508,15.712209 8.3731236,-49.413814 -46.721049,-14.987154 10.742502,14.926478 7.3615532,-49.585871 -46.356032,-14.030977 11.378817,14.128191 6.3532441,-49.727771 -45.966758,-13.092911 11.987256,13.318254 5.3490768,-49.839805 -45.553924,-12.173566 12.56765,12.497578 4.3499187,-49.92229 -45.118243,-11.273526 13.119858,11.667072 3.3566235,-49.975566 -44.660442,-10.393352 13.643768,10.827646 2.3700303,-50 -44.181263,-9.5335783 14.139295,9.9802074 1.390963,-49.99598 -43.681457,-8.6947168 14.606384,9.1256645 0.42022968,-49.96392 -43.161791,-7.8772519 15.045006,8.2649213 -0.54137791,-49.904254 -42.62304,-7.0816432 15.45516,7.3988784 -1.4930853,-49.817439 -42.065991,-6.3083241 15.836874,6.5284322 -2.4341357,-49.703955 -41.491441,-5.5577018 16.190203,5.6544741 -3.3637906,-49.564301 -40.900194,-4.8301572 16.515228,4.7778893 -4.2813305,-49.398997 -40.293063,-4.1260448 16.812056,3.8995563 -5.1860551,-49.208583 -39.670867,-3.4456922 17.080824,3.0203462 -6.0772844,-48.993616 -39.034431,-2.7894002 17.321691,2.1411216 -6.9543584,-48.754675 -38.384588,-2.1574431 17.534845,1.262736 -7.8166386,-48.492352 -37.722172,-1.5500677 17.720497,0.38603293 -8.6635075,-48.207259 -37.048022,-0.9674943 17.878885,-0.48815444 -9.4943697,-47.900023 -36.36298,-0.40991585 18.010271,-1.3590045 -10.308652,-47.571287 -35.667889,0.12250155 18.114941,-2.2257075 -11.105804,-47.221709 -34.963596,0.62961878 18.193204,-3.0874668 -11.885298,-46.851959 -34.250943,1.1113237 18.245394,-3.9434987 -12.646629,-46.462722 -33.530778,1.5675308 18.271867,-4.7930341 -13.389319,-46.054694 -32.803941,1.9981815 18.273,-5.6353184 -14.11291,-45.628586 -32.071275,2.4032438 18.249194,-6.4696125 -14.81697,-45.185115 -31.333617,2.7827119 18.200869,-7.2951932 -15.501091,-44.725012 -30.591802,3.1366064 18.128468,-8.111354 -16.164892,-44.249015 -29.846658,3.464974 18.032452,-8.9174057 -16.808014,-43.757871 -29.099011,3.7678871 17.913302,-9.7126767 -17.430125,-43.252336 -28.349678,4.0454435 17.771518,-10.496514 -18.030917,-42.733171 -27.59947,4.2977666 17.607619,-11.268282 -18.610109,-42.201145 -26.84919,4.5250045 17.422141,-12.027368 -19.167445,-41.65703 -26.099634,4.7273301 17.215635,-12.773174 -19.702693,-41.101604 -25.351586,4.9049406 16.988671,-13.505127 -20.215649,-40.535648 -24.605823,5.0580571 16.741834,-14.222672 -20.706133,-39.959947 -23.86311,5.1869242 16.475722,-14.925276 -21.173993,-39.375287 -23.124201,5.2918097 16.19095,-15.612426 -21.6191,-38.782455 -22.389836,5.3730042 15.888143,-16.283635 -22.041352,-38.182239 -21.660746,5.4308205 15.567942,-16.938432 -22.440672,-37.575426 -20.937647,5.4655931 15.230998,-17.576375 -22.81701,-36.962804 -20.221239,5.477678 14.877975,-18.19704 -23.170339,-36.345155 -19.51221,5.4674521 14.509544,-18.800029 -23.500659,-35.723262 -18.811232,5.4353122 14.12639,-19.384966 -23.807995,-35.097903 -18.118962,5.3816752 13.729204,-19.951499 -24.092396,-34.469851 -17.436038,5.306977 13.318686,-20.4993 -24.353937,-33.839876 -16.763085,5.2116724 12.895544,-21.028065 -24.592714,-33.208739 -16.100706,5.096234 12.460492,-21.537514 -24.808853,-32.577197 -15.449491,4.9611518 12.01425,-22.027391 -25.002498,-31.945999 -14.810008,4.8069328 11.557543,-22.497465 -25.17382,-31.315886 -14.182806,4.6341001 11.091101,-22.94753 -25.323013,-30.687589 -13.568418,4.4431922 10.615657,-23.377403 -25.450292,-30.061832 -12.967353,4.2347629 10.131945,-23.786927 -25.555898,-29.439326 -12.380102,4.0093796 9.6407048,-24.175968 -25.64009,-28.820773 -11.807136,3.7676239 9.1426737,-24.54442 -25.703152,-28.206864 -11.248904,3.5100896 8.6385913,-24.892197 -25.745388,-27.598275 -10.705833,3.2373833 8.1291961,-25.219241 -25.767123,-26.995672 -10.178329,2.9501224 7.6152258,-25.525517 -25.768702,-26.399706 -9.6667765,2.6489355 7.0974158,-25.811016 -25.75049,-25.811016 -9.1715377,2.3344609 6.576499,-26.075749 -25.712873,-25.230222 -8.6929516,2.0073463 6.0532047,-26.319756 -25.656255,-24.657934 -8.2313351,1.6682478 5.5282581,-26.543099 -25.581057,-24.094743 -7.7869819,1.3178294 5.0023792,-26.745862 -25.487719,-23.541224 -7.3601626,0.9567621 4.4762824,-26.928155 -25.376698,-22.997935 -6.9511246,0.58572304 3.9506757,-27.090109 -25.248469,-22.465419 -6.5600917,0.20539496 3.4262599,-27.231881 -25.103521,-21.944198 -6.1872645,-0.18353467 2.9037277,-27.353646 -24.942359,-21.434778 -5.8328196,-0.5803744 2.3837634,-27.455606 -24.765505,-20.937644 -5.4969102,-0.98442957 1.867042,-27.537983 -24.573492,-20.453263 -5.1796655,-1.3950031 1.3542284,-27.60102 -24.366868,-19.982084 -4.8811912,-1.8113961 0.84597701,-27.644982 -24.146195,-19.524533 -4.6015691,-2.232909 0.34293087,-27.670156 -23.912045,-19.081019 -4.3408572,-2.6588419 -0.15427894,-27.676847 -23.665003,-18.651926 -4.0990901,-3.0884955 -0.64503389,-27.665382 -23.405665,-18.23762 -3.8762785,-3.5211719 -1.1287286,-27.636108 -23.134636,-17.838446 -3.6724098,-3.9561754 -1.6047716,-27.589388 -22.852531,-17.454727 -3.487448,-4.3928131 -2.0725856,-27.525608 -22.559975,-17.086762 -3.3213337,-4.8303956 -2.5316084,-27.445168 -22.257598,-16.73483 -3.1739847,-5.2682381 -2.9812932,-27.34849 -21.946041,-16.399188 -3.0452957,-5.7056607 -3.4211093,-27.236008 -21.625948,-16.080069 -2.9351388,-6.1419895 -3.8505424,-27.108178 -21.297971,-15.777685 -2.8433639,-6.5765568 -4.2690953,-26.965466 -20.962767,-15.492223 -2.7697983,-7.0087025 -4.6762884,-26.808359 -20.620997,-15.22385 -2.7142478,-7.4377742 -5.07166,-26.637356 -20.273324,-14.972708 -2.6764965,-7.8631284 -5.4547668,-26.452969 -19.920417,-14.738917 -2.6563072,-8.2841306 -5.8251844,-26.255727 -19.562943,-14.522572 -2.6534216,-8.7001565 -6.1825075,-26.046168 -19.201575,-14.323747 -2.6675613,-9.1105924 -6.5263507,-25.824845 -18.836982,-14.142492 -2.6984273,-9.5148359 -6.8563482,-25.592323 -18.469837,-13.978834 -2.7457011,-9.9122964 -7.1721548,-25.349175 -18.100808,-13.832778 -2.8090446,-10.302396 -7.4734459,-25.095987 -17.730564,-13.704303 -2.888101,-10.68457 -7.7599178,-24.833353 -17.359772,-13.593369 -2.982495,-11.058267 -8.031288,-24.561877 -16.989093,-13.49991 -3.0918333,-11.42295 -8.2872955,-24.282171 -16.619186,-13.423839 -3.2157051,-11.778099 -8.5277009,-23.994853 -16.250707,-13.365047 -3.3536827,-12.123205 -8.7522869,-23.700549 -15.884303,-13.323401 -3.505322,-12.457779 -8.960858,-23.399891 -15.520617,-13.298748 -3.6701629,-12.781346 -9.1532413,-23.093516 -15.160286,-13.290911 -3.8477301,-13.09345 -9.3292859,-22.782067 -14.803937,-13.299693 -4.0375332,-13.39365 -9.4888638,-22.466188 -14.452191,-13.324875 -4.2390682,-13.681525 -9.6318692,-22.146527 -14.10566,-13.366218 -4.451817,-13.956672 -9.7582194,-21.823737 -13.764946,-13.42346 -4.6752488,-14.218706 -9.867854,-21.49847 -13.43064,-13.496322 -4.9088205,-14.46726 -9.9607356,-21.171378 -13.103323,-13.584501 -5.1519772,-14.70199 -10.036849,-20.843116 -12.783565,-13.687678 -5.404153,-14.922568 -10.096204,-20.514336 -12.471922,-13.805513 -5.6647718,-15.128689 -10.138828,-20.18569 -12.168941,-13.937647 -5.9332475,-15.320067 -10.164778,-19.857827 -11.875151,-14.083703 -6.2089851,-15.496437 -10.174126,-19.531394 -11.59107,-14.243288 -6.4913813,-15.657557 -10.166973,-19.207035 -11.317202,-14.415987 -6.7798253,-15.803203 -10.143439,-18.885386 -11.054034,-14.601373 -7.0736991,-15.933174 -10.103665,-18.567084 -10.802038,-14.798999 -7.3723786,-16.047293 -10.047816,-18.252754 -10.561671,-15.008404 -7.6752342,-16.145402 -9.976079,-17.943019 -10.333372,-15.229112 -7.9816317,-16.227366 -9.8886605,-17.638493 -10.117563,-15.460629 -8.2909324,-16.293073 -9.7857896,-17.339783 -9.9146505,-15.702451 -8.6024948,-16.342432 -9.667716,-17.047486 -9.7250203,-15.954057 -8.9156745,-16.375375 -9.5347101,-16.762192 -9.5490411,-16.214914 -9.2298252,-16.391858 -9.3870625,-16.484478 -9.3870625,49.211334 47.061128,15.960809 -10.078508,-15.712209 -8.3731236,49.413814 46.721049,14.987154 -10.742502,-14.926478 -7.3615532,49.585871 46.356032,14.030977 -11.378817,-14.128191 -6.3532441,49.727771 45.966758,13.092911 -11.987256,-13.318254 -5.3490768,49.839805 "
     fill="none"
     stroke="blue"
     stroke-width="0.1"
     stroke-linecap="round"
     stroke-linejoin="round"
     id="polygon1-8"
     style="fill:none;fill-opacity:1;fill-rule:evenodd;stroke:#0000ff;stroke-width:0.0894636;stroke-dasharray:none;stroke-opacity:1"
     transform="matrix(-0.91257961,-0.51722034,0.51722034,-0.91257961,0.00856092,-0.01746691)" />
</svg>
