<?xml version="1.0" encoding="UTF-8" standalone="no"?>
<svg
   width="500"
   height="500"
   viewBox="-50 -50 100 100"
   version="1.1"
   id="svg1"
   sodipodi:docname="im4.svg"
   inkscape:version="1.3 (0e150ed, 2023-07-21)"
   xmlns:inkscape="http://www.inkscape.org/namespaces/inkscape"
   xmlns:sodipodi="http://sodipodi.sourceforge.net/DTD/sodipodi-0.dtd"
   xmlns="http://www.w3.org/2000/svg"
   xmlns:svg="http://www.w3.org/2000/svg">
  <defs
     id="defs1" />
  <sodipodi:namedview
     id="namedview1"
     pagecolor="#ffffff"
     bordercolor="#000000"
     borderopacity="0.25"
     inkscape:showpageshadow="2"
     inkscape:pageopacity="0.0"
     inkscape:pagecheckerboard="0"
     inkscape:deskcolor="#d1d1d1"
     inkscape:zoom="1.1318804"
     inkscape:cx="217.7792"
     inkscape:cy="242.51679"
     inkscape:window-width="1424"
     inkscape:window-height="756"
     inkscape:window-x="0"
     inkscape:window-y="25"
     inkscape:window-maximized="0"
     inkscape:current-layer="svg1" />
  <rect
     x="-50"
     y="-50"
     width="100"
     height="100"
     fill="white"
     stroke="none"
     id="rect1" />
  <rect
     style="fill:#000000;fill-opacity:1;fill-rule:evenodd;stroke:#ffb800;stroke-width:0.099697"
     id="rect2"
     width="99.900307"
     height="99.900307"
     x="-49.950153"
     y="-49.950153" />
  <polygon
     points="-4.6353522,14.040566 49.994242,14.040566 -1.5249859,-2.699046 41.92849,28.871752 10.627528,-14.210326 26.941556,35.999091 26.941556,-16.335142 10.91125,33.001067 41.132868,-8.5954222 -0.092223814,21.356361 47.934175,5.7516376 -2.1046969,5.7516376 45.048495,21.072638 5.3089914,-7.7998009 33.911595,31.568305 19.016177,-14.275075 19.016177,33.468435 33.627872,-11.501738 6.1046127,26.380779 43.615733,-0.87264487 -0.044629971,13.313467 45.40352,13.313467 2.6163644,-0.58892263 38.641895,25.585158 12.737651,-10.068976 26.214457,31.408368 26.214457,-11.74442 13.021373,28.859717 37.846274,-5.3088279 4.0491265,19.246237 43.343453,6.4787366 2.4860253,6.4787366 40.907144,18.962515 8.5955856,-4.5132067 31.801471,27.426955 19.743276,-9.6843533 19.743276,28.877713 31.517749,-7.3603878 9.3912069,23.094185 39.474382,1.2374785 4.5460922,12.586368 40.812798,12.586368 6.7577147,1.5212007 35.355301,22.298564 14.847774,-5.9276257 25.487358,26.817646 25.487358,-7.153698 15.131497,24.718367 34.55968,-2.0222337 8.1904768,17.136114 38.752731,7.2058356 7.0767475,7.2058356 36.765794,16.852392 11.88218,-1.2266124 29.691348,23.285605 20.470375,-5.0936311 20.470375,24.286991 29.407626,-3.2190375 12.677801,19.807591 35.333032,3.3476019 9.1368144,11.859269 36.222075,11.859269 10.899065,3.6313241 32.068707,19.011969 16.957898,-1.7862754 24.760259,22.226924 24.760259,-2.5629758 17.24162,20.577016 31.273086,1.2643605 12.331827,15.02599 34.162008,7.9329345 11.66747,7.9329345 32.624444,14.742268 15.168774,2.0599818 27.581225,19.144254 21.197474,-0.50290891 21.197474,19.696269 27.297502,0.92231283 15.964395,16.520996 31.191682,5.4577253 13.727537,11.13217 31.631353,11.13217 15.040415,5.7414475 28.782113,15.725375 19.068021,2.3550749 24.03316,17.636202 24.03316,2.0277463 19.351743,16.435666 27.986492,4.5509547 16.473177,12.915867 29.571286,8.6600335 16.258192,8.6600335 28.483093,12.632145 18.455368,5.346576 25.471101,15.002904 21.924573,4.0878133 21.924573,15.105547 25.187379,5.0636632 19.25099,13.234402 27.050331,7.5678487 18.318259,10.405071 27.040631,10.405071 19.181766,7.8515709 25.495519,12.438781 21.178144,6.4964252 23.306061,13.04548 23.306061,6.6184685 21.461867,12.294316 24.699897,7.837549 20.614528,10.805744 24.980564,9.3871325 20.848914,9.3871325 24.341743,10.522021 21.741962,8.6331702 23.360978,10.861554 22.651672,8.6785355 22.651672,10.514824 23.077256,9.2050135 22.537584,9.9478079 22.908981,9.677972 -31.229869,27.268751 25.236014,27.268751 -28.029628,9.9616943 16.909437,42.611836 -15.470869,-1.9558315 1.4106039,50 1.4106039,-4.1705219 -15.187147,46.912102 16.113815,3.830024 -26.596866,34.86115 23.175947,18.688983 -28.699213,18.688983 20.200393,34.577428 -21.024699,4.6256453 8.6572474,45.47934 -6.8056144,-2.110455 -6.8056144,47.469345 8.3735251,0.75275679 -20.229078,40.120863 18.767631,11.788095 -26.639146,26.541652 20.645292,26.541652 -23.888278,12.071818 13.622842,39.325242 -13.360746,2.1855189 0.68350492,45.409278 0.68350492,0.42020031 -13.077023,42.770752 12.827221,7.1166182 -22.455516,32.751027 18.585225,19.416082 -24.108491,19.416082 16.059042,32.467305 -17.738105,7.9122395 6.547124,41.33799 -6.0785155,2.4802672 -6.0785155,42.878623 6.2634018,4.8941071 -16.942484,36.834269 14.62628,13.898219 -22.048424,25.814553 16.05457,25.814553 -19.746927,14.181941 10.336248,36.038647 -11.250622,6.3268692 -0.043594047,40.818556 -0.043594047,5.0109225 -10.9669,38.629402 9.5406268,10.403212 -18.314165,30.640903 13.994503,20.143181 -19.517769,20.143181 11.917692,30.357181 -14.451511,11.198834 4.4370006,37.19664 -5.3514165,7.0709894 -5.3514165,38.2879 4.1532784,9.0354574 -13.65589,33.547674 10.48493,16.008342 -17.457702,25.087454 11.463848,25.087454 -15.605577,16.292064 7.0496539,32.752053 -9.1404989,10.46822 -0.77069301,36.227833 -0.77069301,9.6016447 -8.8567767,34.488051 6.2540326,13.689807 -14.172815,28.53078 9.4037809,20.87028 -14.927047,20.87028 7.7763418,28.247058 -11.164917,14.485428 2.3268772,33.055289 -4.6243175,11.661712 -4.6243175,33.697178 2.043155,13.176808 -10.369296,30.26108 6.3435797,18.118466 -12.86698,24.360355 6.8731256,24.360355 -11.464227,18.402188 3.7630597,29.465459 -7.0303756,14.60957 -1.497792,31.637111 -1.497792,14.192367 -6.7466533,30.346701 2.9674384,16.976401 -10.031465,26.420657 4.8130587,21.597379 -10.336325,21.597379 3.6349915,26.136934 -7.8783226,17.772022 0.21675384,28.913939 -3.8972186,16.252434 -3.8972186,29.106456 -0.066968393,17.318158 -7.0827013,26.974486 2.2022294,20.228589 -8.2762576,23.633256 2.2824034,23.633256 -7.3228763,20.512311 0.47646543,26.178865 -4.9202522,18.75092 -2.2248909,27.046389 -2.2248909,18.783089 -4.6365299,26.205351 -0.31915586,20.262995 -5.8901143,24.310533 0.2223365,22.324478 -5.7456024,22.324478 -0.50635885,24.026811 -4.5917283,21.058616 -1.8933695,24.772589 -3.1701196,20.843156 -3.1701196,24.515734 -2.1770918,21.459508 -3.7961071,23.687892 -1.9391209,22.338712 -3.6855354,22.906157 -2.3083188,22.906157 -3.181526,22.622435 -2.8101288,22.89227 -36.269778,-23.160986 -18.820861,30.54126 -18.820861,-25.465551 -35.986056,27.363488 -3.6057501,-17.204179 -47.80202,14.906291 3.7172077,-1.8333212 -49.994242,-1.8333212 0.65177864,14.622568 -42.058902,-16.408558 -11.297612,25.930726 -27.327918,-23.405484 -27.327918,28.010605 -11.581334,-20.452397 -41.263281,20.401298 -0.78098344,-9.0108134 -47.934175,6.3101873 1.1865525,6.3101873 -45.093432,-8.7270912 -6.096723,19.605676 -34.159655,-19.019635 -19.547959,25.950538 -19.547959,-20.874828 -33.875932,23.222138 -6.8923443,-13.917585 -43.66067,12.796167 -0.87351447,-1.1062222 -45.40352,-1.1062222 -3.4895717,12.512445 -38.772308,-13.121964 -13.407736,21.789376 -26.600819,-18.814761 -26.600819,23.419883 -13.691458,-16.311047 -37.976687,17.114703 -4.9223338,-6.90069 -43.343453,5.5830883 -3.4041697,5.5830883 -40.952082,-6.6169678 -9.3833172,16.319082 -32.049531,-14.878285 -20.275058,21.359816 -20.275058,-16.284106 -31.765809,19.080788 -10.178939,-10.630991 -39.519319,10.686044 -5.4642367,-0.37912322 -40.812798,-0.37912322 -7.630922,10.402322 -35.485714,-9.8353693 -15.517859,17.648025 -25.87372,-14.224039 -25.87372,18.829161 -15.801581,-12.169697 -34.690093,13.828109 -9.0636841,-4.7905667 -38.752731,4.8559893 -7.9948919,4.8559893 -36.810731,-4.5068444 -12.669911,13.032488 -29.939408,-10.736935 -21.002157,16.769094 -21.002157,-11.693384 -29.655686,14.939437 -13.465533,-7.3443964 -35.377969,8.5759206 -10.054959,0.34797574 -36.222075,0.34797574 -11.772272,8.2921983 -32.19912,-6.5487751 -17.627982,13.506675 -25.146622,-9.633317 -25.146622,14.238438 -17.911705,-8.0283465 -31.403499,10.541515 -13.205034,-2.6804433 -34.162008,4.1288904 -12.585614,4.1288904 -32.669381,-2.396721 -15.956506,9.7458936 -27.829284,-6.5955844 -21.729256,12.178371 -21.729256,-7.1026617 -27.545562,10.798087 -16.752127,-4.0578022 -31.236619,6.4657972 -14.645681,1.0750747 -31.631353,1.0750747 -15.913623,6.1820749 -28.912526,-3.2621809 -19.738106,9.3653248 -24.419523,-5.0425948 -24.419523,9.6477162 -20.021828,-3.8869962 -28.116904,7.2549206 -17.346385,-0.57031989 -29.571286,3.4017914 -17.176336,3.4017914 -28.528031,-0.28659766 -19.2431,6.4592994 -25.719161,-2.4542341 -22.456355,7.5876493 -22.456355,-2.5119395 -25.435439,6.6567366 -20.038721,-0.77120794 -27.095269,4.3556738 -19.236403,1.8021737 -27.040631,1.8021737 -20.054973,4.0719516 -25.625931,0.024413347 -21.848229,5.2239745 -23.692424,-0.45187261 -23.692424,5.056994 -22.131951,0.25435414 -24.83031,3.9683264 -21.487735,1.5398035 -24.980564,2.6746924 -21.767059,2.6746924 -24.38668,1.8235257 -22.529694,3.1727051 -23.609038,1.6871162 -23.183454,2.9969271 -23.183454,2.0787827 -23.325315,2.5153863 10.134334,-43.53787 -35.547525,-10.348057 17.718117,-27.655113 -37.829621,-27.655113 14.562814,-10.631779 -29.633456,-42.742249 2.2071775,1.0826242 -14.390573,-50 -14.390573,3.2523774 1.9234553,-46.95704 -28.837835,-4.6177556 13.130052,-35.10921 -35.769554,-19.220765 15.187462,-19.220765 -32.838937,-34.825488 7.6433608,-5.4133769 -21.498914,-45.524277 -6.3197747,1.1923105 -6.3197747,-47.469345 -21.215192,-1.625964 6.8477395,-40.251276 -31.406175,-12.45818 13.127395,-26.928014 -33.238899,-26.928014 10.421463,-12.741902 -26.346862,-39.455654 0.097054143,-3.0587261 -13.663474,-45.409278 -13.663474,-1.3383447 -0.18666809,-42.815689 -25.551241,-7.9043498 8.9887013,-32.999087 -31.178832,-19.947864 10.59674,-19.947864 -28.697587,-32.715364 4.3567666,-8.6999711 -19.388791,-41.382927 -7.0468737,-3.3984117 -7.0468737,-42.878623 -19.105069,-5.7673144 3.5611453,-36.964681 -27.264825,-14.568303 8.5366728,-26.200915 -28.648177,-26.200915 6.280113,-14.852026 -23.060268,-36.16906 -2.0130692,-7.2000764 -12.936375,-40.818556 -12.936375,-5.9290669 -2.2967915,-38.674339 -22.264647,-11.190944 4.847351,-30.888963 -26.58811,-20.674963 6.0060175,-20.674963 -24.556236,-30.605241 1.0701724,-11.986565 -17.278667,-37.241577 -7.7739726,-7.9891339 -7.7739726,-38.2879 -16.994945,-9.9086647 0.27455108,-33.678087 -23.123474,-16.678427 3.9459506,-25.473816 -24.057455,-25.473816 2.1387627,-16.962149 -19.773674,-32.882466 -4.1231926,-11.341427 -12.209276,-36.227833 -12.209276,-10.519789 -4.4069149,-34.532989 -18.978052,-14.477538 0.70600064,-28.77884 -21.997388,-21.402062 1.4152953,-21.402062 -20.414886,-28.495118 -2.2164219,-15.27316 -15.168544,-33.100226 -8.5010716,-12.579856 -8.5010716,-33.697178 -14.884822,-14.050015 -3.0120431,-30.391493 -18.982124,-18.78855 -0.64477163,-24.746717 -19.466733,-24.746717 -2.0025876,-19.072272 -16.487079,-29.595872 -6.233316,-15.482777 -11.482177,-31.637111 -11.482177,-15.110511 -6.5170382,-30.391638 -15.691458,-17.764133 -3.4353497,-26.668717 -17.406666,-22.129161 -3.1754269,-22.129161 -16.273536,-26.384994 -5.5030161,-18.559754 -13.058421,-28.958876 -9.2281706,-17.170578 -9.2281706,-29.106456 -12.774698,-18.191365 -6.2986374,-27.104899 -14.840774,-20.898674 -5.2354938,-24.019618 -14.87601,-24.019618 -6.1439379,-21.182396 -13.200485,-26.309277 -8.3434394,-19.624127 -10.755078,-27.046389 -10.755078,-19.701234 -8.6271616,-26.250288 -12.404864,-21.050727 -7.5767,-24.558593 -12.815944,-22.85626 -7.7661491,-22.85626 -12.132185,-24.274871 -8.7896103,-21.846348 -10.948297,-24.817526 -9.9552695,-21.7613 -9.9552695,-24.515734 -10.664575,-22.332716 -9.5852316,-23.818305 -10.699423,-23.008797 -9.826216,-23.292519 -10.285288,-23.292519 43.853561,-5.7017406 -1.8282976,-38.891554 31.09168,6.4189079 13.926485,-46.410131 13.926485,8.6785355 30.807958,-43.277296 -1.0326763,0.54757682 42.420799,-31.023221 -8.2252213,-14.567332 44.568084,-14.567332 -5.2047294,-30.739499 36.763157,-0.24804447 6.5415387,-41.844534 22.288123,6.6184685 22.288123,-43.879476 6.8252609,3.7103196 35.967536,-36.400581 -3.7719673,-7.5281417 42.508017,-22.56542 -5.694566,-22.56542 39.712211,-7.811864 1.4582966,-35.60496 28.981556,2.2775575 14.653584,-41.819409 14.653584,4.0878133 28.697834,-39.135946 2.2539179,-2.7390174 38.279449,-28.913098 -3.6344991,-15.294431 39.977362,-15.294431 -1.0633791,-28.629376 33.476563,-3.5346387 8.651662,-37.703184 21.561024,2.0277463 21.561024,-39.288753 8.9353843,-0.43103071 32.680942,-33.113987 0.36938298,-9.6382651 37.917295,-21.838321 -1.1038439,-21.838321 35.570861,-9.9219873 4.7448909,-32.318365 26.871433,-1.8637928 15.380683,-37.228686 15.380683,-0.50290891 26.587711,-34.994595 5.5405121,-6.0256116 34.138099,-26.802974 0.95622308,-16.021529 35.38664,-16.021529 3.0779712,-26.519252 30.189969,-6.8212329 10.761785,-33.561833 20.833925,-2.5629758 20.833925,-34.698031 11.045508,-4.572381 29.394348,-29.827392 4.5107333,-11.748388 33.326573,-21.111222 3.4868783,-21.111222 31.42951,-12.032111 8.0314851,-29.031771 24.76131,-6.0051431 16.107781,-32.637964 16.107781,-5.0936311 24.477587,-30.853245 8.8271064,-9.3122059 29.996748,-24.692851 5.5469453,-16.748628 30.795917,-16.748628 7.2193215,-24.409129 26.903375,-10.107827 12.871909,-29.420483 20.106826,-7.153698 20.106826,-30.107309 13.155631,-8.7137313 26.107753,-26.540798 8.6520836,-13.858512 28.73585,-20.384123 8.0776005,-20.384123 27.28816,-14.142234 11.318079,-25.745177 22.651186,-10.146493 16.83488,-28.047242 16.83488,-9.6843533 22.367464,-26.711895 12.113701,-12.5988 25.855398,-22.582728 10.137667,-17.475727 26.205195,-17.475727 11.360672,-22.299005 23.61678,-13.394421 14.982032,-25.279133 19.379727,-11.74442 19.379727,-25.516587 15.265754,-12.855082 22.821159,-23.254204 12.793434,-15.968635 24.145128,-19.657024 12.668323,-19.657024 23.14681,-16.252357 14.604674,-22.458583 20.541063,-14.287844 17.561979,-23.45652 17.561979,-14.275075 20.257341,-22.570544 15.400295,-15.885394 21.714048,-20.472604 14.72839,-18.202826 21.614473,-18.202826 15.502022,-20.188882 20.330186,-16.681016 17.092156,-21.137782 18.652628,-16.335142 18.652628,-20.925865 17.375878,-16.996432 19.534565,-19.96761 16.934784,-18.078759 19.554406,-18.929925 17.259045,-18.929925 19.005459,-18.362481 17.891268,-19.171989 18.43094,-18.429194 18.289078,-18.865798 18.289078,38.059158 35.737996,-15.643088 2.8180184,29.667373 47.757083,-2.9827683 "
     fill="none"
     stroke="blue"
     stroke-width="0.1"
     stroke-linecap="round"
     stroke-linejoin="round"
     id="polygon1"
     style="stroke:none;stroke-width:0.10288033;stroke-dasharray:none;stroke-opacity:1;fill:#ff0000;fill-opacity:1;fill-rule:evenodd"
     transform="matrix(0.96374403,-0.12644138,0.12644138,0.96374403,-0.73205444,-0.76023607)" />
</svg>
